<svg xmlns="http://www.w3.org/2000/svg" xmlns:xlink="http://www.w3.org/1999/xlink" width="1024" zoomAndPan="magnify" viewBox="0 0 768 767.999994" height="1024" preserveAspectRatio="xMidYMid meet" version="1.0"><defs><clipPath id="id1"><path d="M 594.582031 322.066406 L 569.804688 322.066406 L 569.804688 346.839844 L 594.582031 346.839844 Z M 619.355469 346.839844 L 644.128906 346.839844 L 644.128906 322.066406 L 619.355469 322.066406 Z M 396.386719 495.484375 L 545.03125 495.484375 L 545.03125 470.710938 L 396.386719 470.710938 Z M 396.386719 445.9375 L 545.03125 445.9375 L 545.03125 421.160156 L 396.386719 421.160156 Z M 272.515625 371.613281 L 247.742188 371.613281 L 247.742188 396.386719 L 272.515625 396.386719 Z M 297.289062 396.386719 L 545.03125 396.386719 L 545.03125 371.613281 L 297.289062 371.613281 Z M 545.03125 322.066406 L 346.839844 322.066406 L 346.839844 346.839844 L 545.03125 346.839844 Z M 644.128906 272.515625 L 346.839844 272.515625 L 346.839844 297.289062 L 644.128906 297.289062 Z M 644.128906 222.96875 L 396.386719 222.96875 L 396.386719 247.742188 L 644.128906 247.742188 Z M 371.613281 222.96875 L 346.839844 222.96875 L 346.839844 247.742188 L 371.613281 247.742188 Z M 619.355469 408.773438 C 619.355469 388.257812 602.710938 371.613281 582.195312 371.613281 L 569.804688 371.613281 L 569.804688 396.386719 L 582.195312 396.386719 C 589.015625 396.386719 594.582031 401.953125 594.582031 408.773438 C 594.582031 418.304688 598.304688 426.96875 604.257812 433.546875 C 598.304688 440.128906 594.582031 448.789062 594.582031 458.324219 C 594.582031 465.144531 589.015625 470.710938 582.195312 470.710938 L 569.804688 470.710938 L 569.804688 495.484375 L 582.195312 495.484375 C 602.710938 495.484375 619.355469 478.839844 619.355469 458.324219 C 619.355469 451.5 624.917969 445.9375 631.742188 445.9375 L 644.128906 445.9375 L 644.128906 421.160156 L 631.742188 421.160156 C 624.917969 421.160156 619.355469 415.597656 619.355469 408.773438 Z M 272.515625 309.675781 C 272.515625 330.195312 289.160156 346.839844 309.675781 346.839844 L 322.066406 346.839844 L 322.066406 322.066406 L 309.675781 322.066406 C 302.855469 322.066406 297.289062 316.5 297.289062 309.675781 C 297.289062 300.144531 293.566406 291.484375 287.613281 284.902344 C 293.566406 278.324219 297.289062 269.660156 297.289062 260.128906 C 297.289062 253.304688 302.855469 247.742188 309.675781 247.742188 L 322.066406 247.742188 L 322.066406 222.96875 L 309.675781 222.96875 C 289.160156 222.96875 272.515625 239.613281 272.515625 260.128906 C 272.515625 266.953125 266.953125 272.515625 260.128906 272.515625 L 247.742188 272.515625 L 247.742188 297.289062 L 260.128906 297.289062 C 266.953125 297.289062 272.515625 302.855469 272.515625 309.675781 Z M 644.128906 594.582031 L 668.902344 594.582031 L 668.902344 569.804688 L 644.128906 569.804688 Z M 693.675781 594.582031 L 718.453125 594.582031 L 718.453125 569.804688 L 693.675781 569.804688 Z M 594.582031 594.582031 L 619.355469 594.582031 L 619.355469 569.804688 L 594.582031 569.804688 Z M 743.226562 582.195312 L 743.226562 545.03125 L 371.613281 545.03125 L 371.613281 619.355469 L 706.0625 619.355469 C 726.582031 619.355469 743.226562 602.710938 743.226562 582.195312 Z M 545.03125 644.128906 L 346.839844 644.128906 L 346.839844 693.675781 L 545.03125 693.675781 Z M 569.804688 718.453125 L 322.066406 718.453125 C 308.417969 718.453125 297.289062 729.582031 297.289062 743.226562 L 594.582031 743.226562 C 594.582031 729.582031 583.453125 718.453125 569.804688 718.453125 Z M 61.933594 619.355469 L 346.839844 619.355469 L 346.839844 445.9375 L 61.933594 445.9375 C 48 445.9375 35.128906 441.289062 24.773438 433.5 L 24.773438 582.195312 C 24.773438 602.710938 41.417969 619.355469 61.933594 619.355469 Z M 24.773438 384 C 24.773438 404.515625 41.417969 421.160156 61.933594 421.160156 L 123.871094 421.160156 L 123.871094 346.839844 L 61.933594 346.839844 C 41.417969 346.839844 24.773438 363.484375 24.773438 384 Z M 148.644531 235.355469 L 148.644531 421.160156 L 198.195312 421.160156 L 198.195312 198.195312 L 185.804688 198.195312 C 165.289062 198.195312 148.644531 214.839844 148.644531 235.355469 Z M 222.96875 24.773438 L 222.96875 421.160156 L 371.613281 421.160156 L 371.613281 520.257812 L 668.902344 520.257812 L 668.902344 123.871094 L 644.128906 123.871094 L 644.128906 198.195312 L 247.742188 198.195312 L 247.742188 49.546875 L 569.804688 49.546875 L 569.804688 24.773438 Z M 651.386719 99.097656 L 594.582031 42.289062 L 594.582031 99.097656 Z M 569.804688 123.871094 L 569.804688 74.324219 L 272.515625 74.324219 L 272.515625 173.417969 L 619.355469 173.417969 L 619.355469 123.871094 Z M 693.675781 198.195312 L 693.675781 520.257812 L 743.226562 520.257812 L 743.226562 235.355469 C 743.226562 214.839844 726.582031 198.195312 706.0625 198.195312 Z M 768 235.355469 L 768 582.195312 C 768 616.355469 740.226562 644.128906 706.0625 644.128906 L 569.804688 644.128906 L 569.804688 693.675781 C 597.144531 693.675781 619.355469 715.886719 619.355469 743.226562 C 619.355469 756.871094 608.226562 768 594.582031 768 L 297.289062 768 C 283.644531 768 272.515625 756.871094 272.515625 743.226562 C 272.515625 715.886719 294.726562 693.675781 322.066406 693.675781 L 322.066406 644.128906 L 61.933594 644.128906 C 27.773438 644.128906 0 616.355469 0 582.195312 L 0 384 C 0 349.839844 27.773438 322.066406 61.933594 322.066406 L 123.871094 322.066406 L 123.871094 235.355469 C 123.871094 201.195312 151.644531 173.417969 185.804688 173.417969 L 198.195312 173.417969 L 198.195312 0 L 587.324219 0 L 693.675781 106.355469 L 693.675781 173.417969 L 706.0625 173.417969 C 740.226562 173.417969 768 201.195312 768 235.355469 Z M 284.902344 495.484375 C 291.726562 495.484375 297.289062 501.046875 297.289062 507.871094 L 322.066406 507.871094 C 322.066406 487.355469 305.417969 470.710938 284.902344 470.710938 C 264.386719 470.710938 247.742188 487.355469 247.742188 507.871094 C 247.742188 528.386719 264.386719 545.03125 284.902344 545.03125 C 291.726562 545.03125 297.289062 550.597656 297.289062 557.417969 C 297.289062 564.242188 291.726562 569.804688 284.902344 569.804688 C 278.082031 569.804688 272.515625 564.242188 272.515625 557.417969 L 247.742188 557.417969 C 247.742188 577.9375 264.386719 594.582031 284.902344 594.582031 C 305.417969 594.582031 322.066406 577.9375 322.066406 557.417969 C 322.066406 536.902344 305.417969 520.257812 284.902344 520.257812 C 278.082031 520.257812 272.515625 514.695312 272.515625 507.871094 C 272.515625 501.046875 278.082031 495.484375 284.902344 495.484375 Z M 185.804688 495.484375 C 192.628906 495.484375 198.195312 501.046875 198.195312 507.871094 L 222.96875 507.871094 C 222.96875 487.355469 206.324219 470.710938 185.804688 470.710938 C 165.289062 470.710938 148.644531 487.355469 148.644531 507.871094 C 148.644531 528.386719 165.289062 545.03125 185.804688 545.03125 C 192.628906 545.03125 198.195312 550.597656 198.195312 557.417969 C 198.195312 564.242188 192.628906 569.804688 185.804688 569.804688 C 178.984375 569.804688 173.417969 564.242188 173.417969 557.417969 L 148.644531 557.417969 C 148.644531 577.9375 165.289062 594.582031 185.804688 594.582031 C 206.324219 594.582031 222.96875 577.9375 222.96875 557.417969 C 222.96875 536.902344 206.324219 520.257812 185.804688 520.257812 C 178.984375 520.257812 173.417969 514.695312 173.417969 507.871094 C 173.417969 501.046875 178.984375 495.484375 185.804688 495.484375 Z M 74.324219 507.871094 L 74.324219 557.417969 C 74.324219 564.242188 79.886719 569.804688 86.710938 569.804688 C 93.53125 569.804688 99.097656 564.242188 99.097656 557.417969 L 123.871094 557.417969 C 123.871094 577.9375 107.226562 594.582031 86.710938 594.582031 C 66.195312 594.582031 49.546875 577.9375 49.546875 557.417969 L 49.546875 507.871094 C 49.546875 487.355469 66.195312 470.710938 86.710938 470.710938 C 107.226562 470.710938 123.871094 487.355469 123.871094 507.871094 L 99.097656 507.871094 C 99.097656 501.046875 93.53125 495.484375 86.710938 495.484375 C 79.886719 495.484375 74.324219 501.046875 74.324219 507.871094 Z M 74.324219 507.871094 " clip-rule="nonzero"/></clipPath><clipPath id="id2"><path d="M 594.582031 322.066406 L 569.804688 322.066406 L 569.804688 346.839844 L 594.582031 346.839844 Z M 619.355469 346.839844 L 644.128906 346.839844 L 644.128906 322.066406 L 619.355469 322.066406 Z M 396.386719 495.484375 L 545.03125 495.484375 L 545.03125 470.710938 L 396.386719 470.710938 Z M 396.386719 445.9375 L 545.03125 445.9375 L 545.03125 421.160156 L 396.386719 421.160156 Z M 272.515625 371.613281 L 247.742188 371.613281 L 247.742188 396.386719 L 272.515625 396.386719 Z M 297.289062 396.386719 L 545.03125 396.386719 L 545.03125 371.613281 L 297.289062 371.613281 Z M 545.03125 322.066406 L 346.839844 322.066406 L 346.839844 346.839844 L 545.03125 346.839844 Z M 644.128906 272.515625 L 346.839844 272.515625 L 346.839844 297.289062 L 644.128906 297.289062 Z M 644.128906 222.96875 L 396.386719 222.96875 L 396.386719 247.742188 L 644.128906 247.742188 Z M 371.613281 222.96875 L 346.839844 222.96875 L 346.839844 247.742188 L 371.613281 247.742188 Z M 619.355469 408.773438 C 619.355469 388.257812 602.710938 371.613281 582.195312 371.613281 L 569.804688 371.613281 L 569.804688 396.386719 L 582.195312 396.386719 C 589.015625 396.386719 594.582031 401.953125 594.582031 408.773438 C 594.582031 418.304688 598.304688 426.96875 604.257812 433.546875 C 598.304688 440.128906 594.582031 448.789062 594.582031 458.324219 C 594.582031 465.144531 589.015625 470.710938 582.195312 470.710938 L 569.804688 470.710938 L 569.804688 495.484375 L 582.195312 495.484375 C 602.710938 495.484375 619.355469 478.839844 619.355469 458.324219 C 619.355469 451.5 624.917969 445.9375 631.742188 445.9375 L 644.128906 445.9375 L 644.128906 421.160156 L 631.742188 421.160156 C 624.917969 421.160156 619.355469 415.597656 619.355469 408.773438 Z M 272.515625 309.675781 C 272.515625 330.195312 289.160156 346.839844 309.675781 346.839844 L 322.066406 346.839844 L 322.066406 322.066406 L 309.675781 322.066406 C 302.855469 322.066406 297.289062 316.5 297.289062 309.675781 C 297.289062 300.144531 293.566406 291.484375 287.613281 284.902344 C 293.566406 278.324219 297.289062 269.660156 297.289062 260.128906 C 297.289062 253.304688 302.855469 247.742188 309.675781 247.742188 L 322.066406 247.742188 L 322.066406 222.96875 L 309.675781 222.96875 C 289.160156 222.96875 272.515625 239.613281 272.515625 260.128906 C 272.515625 266.953125 266.953125 272.515625 260.128906 272.515625 L 247.742188 272.515625 L 247.742188 297.289062 L 260.128906 297.289062 C 266.953125 297.289062 272.515625 302.855469 272.515625 309.675781 Z M 644.128906 594.582031 L 668.902344 594.582031 L 668.902344 569.804688 L 644.128906 569.804688 Z M 693.675781 594.582031 L 718.453125 594.582031 L 718.453125 569.804688 L 693.675781 569.804688 Z M 594.582031 594.582031 L 619.355469 594.582031 L 619.355469 569.804688 L 594.582031 569.804688 Z M 743.226562 582.195312 L 743.226562 545.03125 L 371.613281 545.03125 L 371.613281 619.355469 L 706.0625 619.355469 C 726.582031 619.355469 743.226562 602.710938 743.226562 582.195312 Z M 545.03125 644.128906 L 346.839844 644.128906 L 346.839844 693.675781 L 545.03125 693.675781 Z M 569.804688 718.453125 L 322.066406 718.453125 C 308.417969 718.453125 297.289062 729.582031 297.289062 743.226562 L 594.582031 743.226562 C 594.582031 729.582031 583.453125 718.453125 569.804688 718.453125 Z M 61.933594 619.355469 L 346.839844 619.355469 L 346.839844 445.9375 L 61.933594 445.9375 C 48 445.9375 35.128906 441.289062 24.773438 433.5 L 24.773438 582.195312 C 24.773438 602.710938 41.417969 619.355469 61.933594 619.355469 Z M 24.773438 384 C 24.773438 404.515625 41.417969 421.160156 61.933594 421.160156 L 123.871094 421.160156 L 123.871094 346.839844 L 61.933594 346.839844 C 41.417969 346.839844 24.773438 363.484375 24.773438 384 Z M 148.644531 235.355469 L 148.644531 421.160156 L 198.195312 421.160156 L 198.195312 198.195312 L 185.804688 198.195312 C 165.289062 198.195312 148.644531 214.839844 148.644531 235.355469 Z M 222.96875 24.773438 L 222.96875 421.160156 L 371.613281 421.160156 L 371.613281 520.257812 L 668.902344 520.257812 L 668.902344 123.871094 L 644.128906 123.871094 L 644.128906 198.195312 L 247.742188 198.195312 L 247.742188 49.546875 L 569.804688 49.546875 L 569.804688 24.773438 Z M 651.386719 99.097656 L 594.582031 42.289062 L 594.582031 99.097656 Z M 569.804688 123.871094 L 569.804688 74.324219 L 272.515625 74.324219 L 272.515625 173.417969 L 619.355469 173.417969 L 619.355469 123.871094 Z M 693.675781 198.195312 L 693.675781 520.257812 L 743.226562 520.257812 L 743.226562 235.355469 C 743.226562 214.839844 726.582031 198.195312 706.0625 198.195312 Z M 768 235.355469 L 768 582.195312 C 768 616.355469 740.226562 644.128906 706.0625 644.128906 L 569.804688 644.128906 L 569.804688 693.675781 C 597.144531 693.675781 619.355469 715.886719 619.355469 743.226562 C 619.355469 756.871094 608.226562 768 594.582031 768 L 297.289062 768 C 283.644531 768 272.515625 756.871094 272.515625 743.226562 C 272.515625 715.886719 294.726562 693.675781 322.066406 693.675781 L 322.066406 644.128906 L 61.933594 644.128906 C 27.773438 644.128906 0 616.355469 0 582.195312 L 0 384 C 0 349.839844 27.773438 322.066406 61.933594 322.066406 L 123.871094 322.066406 L 123.871094 235.355469 C 123.871094 201.195312 151.644531 173.417969 185.804688 173.417969 L 198.195312 173.417969 L 198.195312 0 L 587.324219 0 L 693.675781 106.355469 L 693.675781 173.417969 L 706.0625 173.417969 C 740.226562 173.417969 768 201.195312 768 235.355469 Z M 284.902344 495.484375 C 291.726562 495.484375 297.289062 501.046875 297.289062 507.871094 L 322.066406 507.871094 C 322.066406 487.355469 305.417969 470.710938 284.902344 470.710938 C 264.386719 470.710938 247.742188 487.355469 247.742188 507.871094 C 247.742188 528.386719 264.386719 545.03125 284.902344 545.03125 C 291.726562 545.03125 297.289062 550.597656 297.289062 557.417969 C 297.289062 564.242188 291.726562 569.804688 284.902344 569.804688 C 278.082031 569.804688 272.515625 564.242188 272.515625 557.417969 L 247.742188 557.417969 C 247.742188 577.9375 264.386719 594.582031 284.902344 594.582031 C 305.417969 594.582031 322.066406 577.9375 322.066406 557.417969 C 322.066406 536.902344 305.417969 520.257812 284.902344 520.257812 C 278.082031 520.257812 272.515625 514.695312 272.515625 507.871094 C 272.515625 501.046875 278.082031 495.484375 284.902344 495.484375 Z M 185.804688 495.484375 C 192.628906 495.484375 198.195312 501.046875 198.195312 507.871094 L 222.96875 507.871094 C 222.96875 487.355469 206.324219 470.710938 185.804688 470.710938 C 165.289062 470.710938 148.644531 487.355469 148.644531 507.871094 C 148.644531 528.386719 165.289062 545.03125 185.804688 545.03125 C 192.628906 545.03125 198.195312 550.597656 198.195312 557.417969 C 198.195312 564.242188 192.628906 569.804688 185.804688 569.804688 C 178.984375 569.804688 173.417969 564.242188 173.417969 557.417969 L 148.644531 557.417969 C 148.644531 577.9375 165.289062 594.582031 185.804688 594.582031 C 206.324219 594.582031 222.96875 577.9375 222.96875 557.417969 C 222.96875 536.902344 206.324219 520.257812 185.804688 520.257812 C 178.984375 520.257812 173.417969 514.695312 173.417969 507.871094 C 173.417969 501.046875 178.984375 495.484375 185.804688 495.484375 Z M 74.324219 507.871094 L 74.324219 557.417969 C 74.324219 564.242188 79.886719 569.804688 86.710938 569.804688 C 93.53125 569.804688 99.097656 564.242188 99.097656 557.417969 L 123.871094 557.417969 C 123.871094 577.9375 107.226562 594.582031 86.710938 594.582031 C 66.195312 594.582031 49.546875 577.9375 49.546875 557.417969 L 49.546875 507.871094 C 49.546875 487.355469 66.195312 470.710938 86.710938 470.710938 C 107.226562 470.710938 123.871094 487.355469 123.871094 507.871094 L 99.097656 507.871094 C 99.097656 501.046875 93.53125 495.484375 86.710938 495.484375 C 79.886719 495.484375 74.324219 501.046875 74.324219 507.871094 " clip-rule="nonzero"/></clipPath><linearGradient x1="0.000000109505" gradientTransform="matrix(0, -767.999934, 767.999934, 0, 383.99997, 768.000072)" y1="0" x2="1" gradientUnits="userSpaceOnUse" y2="0" xlink:type="simple" xlink:actuate="onLoad" id="id3" xlink:show="other"><stop stop-opacity="1" stop-color="rgb(62.399292%, 18.399048%, 100%)" offset="0"/><stop stop-opacity="1" stop-color="rgb(62.199402%, 18.598938%, 100%)" offset="0.00390625"/><stop stop-opacity="1" stop-color="rgb(61.999512%, 18.798828%, 100%)" offset="0.0078125"/><stop stop-opacity="1" stop-color="rgb(61.799622%, 18.998718%, 99.798584%)" offset="0.0117188"/><stop stop-opacity="1" stop-color="rgb(61.599731%, 19.198608%, 99.598694%)" offset="0.015625"/><stop stop-opacity="1" stop-color="rgb(61.376953%, 19.419861%, 99.598694%)" offset="0.0195312"/><stop stop-opacity="1" stop-color="rgb(61.155701%, 19.642639%, 99.598694%)" offset="0.0234375"/><stop stop-opacity="1" stop-color="rgb(60.777283%, 19.833374%, 99.586487%)" offset="0.0273438"/><stop stop-opacity="1" stop-color="rgb(60.398865%, 20.024109%, 99.57428%)" offset="0.03125"/><stop stop-opacity="1" stop-color="rgb(60.198975%, 20.214844%, 99.386597%)" offset="0.0351562"/><stop stop-opacity="1" stop-color="rgb(59.999084%, 20.405579%, 99.198914%)" offset="0.0390625"/><stop stop-opacity="1" stop-color="rgb(59.805298%, 20.602417%, 99.198914%)" offset="0.0429688"/><stop stop-opacity="1" stop-color="rgb(59.611511%, 20.799255%, 99.198914%)" offset="0.046875"/><stop stop-opacity="1" stop-color="rgb(59.405518%, 20.999146%, 99.198914%)" offset="0.0507812"/><stop stop-opacity="1" stop-color="rgb(59.199524%, 21.199036%, 99.198914%)" offset="0.0546875"/><stop stop-opacity="1" stop-color="rgb(58.999634%, 21.398926%, 98.999023%)" offset="0.0585938"/><stop stop-opacity="1" stop-color="rgb(58.799744%, 21.598816%, 98.799133%)" offset="0.0625"/><stop stop-opacity="1" stop-color="rgb(58.583069%, 21.813965%, 98.799133%)" offset="0.0664062"/><stop stop-opacity="1" stop-color="rgb(58.36792%, 22.03064%, 98.799133%)" offset="0.0703125"/><stop stop-opacity="1" stop-color="rgb(57.983398%, 22.219849%, 98.79303%)" offset="0.0742187"/><stop stop-opacity="1" stop-color="rgb(57.598877%, 22.409058%, 98.786926%)" offset="0.078125"/><stop stop-opacity="1" stop-color="rgb(57.450867%, 22.554016%, 98.59314%)" offset="0.0859375"/><stop stop-opacity="1" stop-color="rgb(57.113647%, 22.898865%, 98.399353%)" offset="0.0898438"/><stop stop-opacity="1" stop-color="rgb(56.924438%, 23.098755%, 98.399353%)" offset="0.09375"/><stop stop-opacity="1" stop-color="rgb(56.733704%, 23.298645%, 98.399353%)" offset="0.0976562"/><stop stop-opacity="1" stop-color="rgb(56.542969%, 23.498535%, 98.399353%)" offset="0.101562"/><stop stop-opacity="1" stop-color="rgb(56.30188%, 23.716736%, 98.199463%)" offset="0.105469"/><stop stop-opacity="1" stop-color="rgb(56.062317%, 23.936462%, 97.999573%)" offset="0.109375"/><stop stop-opacity="1" stop-color="rgb(55.871582%, 24.127197%, 97.999573%)" offset="0.117188"/><stop stop-opacity="1" stop-color="rgb(55.290222%, 24.508667%, 97.799683%)" offset="0.121094"/><stop stop-opacity="1" stop-color="rgb(54.899597%, 24.699402%, 97.599792%)" offset="0.125"/><stop stop-opacity="1" stop-color="rgb(54.708862%, 24.899292%, 97.599792%)" offset="0.128906"/><stop stop-opacity="1" stop-color="rgb(54.518127%, 25.099182%, 97.599792%)" offset="0.132812"/><stop stop-opacity="1" stop-color="rgb(54.327393%, 25.299072%, 97.599792%)" offset="0.136719"/><stop stop-opacity="1" stop-color="rgb(54.136658%, 25.498962%, 97.599792%)" offset="0.140625"/><stop stop-opacity="1" stop-color="rgb(53.895569%, 25.720215%, 97.44873%)" offset="0.144531"/><stop stop-opacity="1" stop-color="rgb(53.656006%, 25.942993%, 97.299194%)" offset="0.148437"/><stop stop-opacity="1" stop-color="rgb(53.465271%, 26.133728%, 97.299194%)" offset="0.15625"/><stop stop-opacity="1" stop-color="rgb(53.083801%, 26.515198%, 97.299194%)" offset="0.164063"/><stop stop-opacity="1" stop-color="rgb(52.696228%, 26.902771%, 97.105408%)" offset="0.167969"/><stop stop-opacity="1" stop-color="rgb(52.49939%, 27.099609%, 96.911621%)" offset="0.171875"/><stop stop-opacity="1" stop-color="rgb(52.165222%, 27.2995%, 96.905518%)" offset="0.175781"/><stop stop-opacity="1" stop-color="rgb(51.831055%, 27.49939%, 96.899414%)" offset="0.179688"/><stop stop-opacity="1" stop-color="rgb(51.64032%, 27.648926%, 96.899414%)" offset="0.1875"/><stop stop-opacity="1" stop-color="rgb(51.223755%, 28.015137%, 96.699524%)" offset="0.191406"/><stop stop-opacity="1" stop-color="rgb(50.999451%, 28.230286%, 96.499634%)" offset="0.195312"/><stop stop-opacity="1" stop-color="rgb(50.793457%, 28.421021%, 96.499634%)" offset="0.199219"/><stop stop-opacity="1" stop-color="rgb(50.587463%, 28.611755%, 96.499634%)" offset="0.203125"/><stop stop-opacity="1" stop-color="rgb(50.393677%, 28.805542%, 96.499634%)" offset="0.210937"/><stop stop-opacity="1" stop-color="rgb(49.998474%, 29.199219%, 96.311951%)" offset="0.214844"/><stop stop-opacity="1" stop-color="rgb(49.798584%, 29.399109%, 96.124268%)" offset="0.21875"/><stop stop-opacity="1" stop-color="rgb(49.420166%, 29.598999%, 96.112061%)" offset="0.222656"/><stop stop-opacity="1" stop-color="rgb(49.043274%, 29.798889%, 96.099854%)" offset="0.226563"/><stop stop-opacity="1" stop-color="rgb(48.820496%, 30.01709%, 96.099854%)" offset="0.230469"/><stop stop-opacity="1" stop-color="rgb(48.599243%, 30.236816%, 96.099854%)" offset="0.234375"/><stop stop-opacity="1" stop-color="rgb(48.399353%, 30.427551%, 95.898438%)" offset="0.238281"/><stop stop-opacity="1" stop-color="rgb(48.199463%, 30.618286%, 95.698547%)" offset="0.242188"/><stop stop-opacity="1" stop-color="rgb(47.999573%, 30.809021%, 95.698547%)" offset="0.246094"/><stop stop-opacity="1" stop-color="rgb(47.799683%, 30.999756%, 95.698547%)" offset="0.25"/><stop stop-opacity="1" stop-color="rgb(47.648621%, 31.390381%, 95.698547%)" offset="0.253906"/><stop stop-opacity="1" stop-color="rgb(47.499084%, 31.781006%, 95.698547%)" offset="0.257812"/><stop stop-opacity="1" stop-color="rgb(47.299194%, 31.971741%, 95.498657%)" offset="0.261719"/><stop stop-opacity="1" stop-color="rgb(47.099304%, 32.162476%, 95.298767%)" offset="0.265625"/><stop stop-opacity="1" stop-color="rgb(46.876526%, 32.330322%, 95.298767%)" offset="0.269531"/><stop stop-opacity="1" stop-color="rgb(46.655273%, 32.499695%, 95.298767%)" offset="0.273438"/><stop stop-opacity="1" stop-color="rgb(46.276855%, 32.699585%, 95.28656%)" offset="0.277344"/><stop stop-opacity="1" stop-color="rgb(45.899963%, 32.899475%, 95.274353%)" offset="0.28125"/><stop stop-opacity="1" stop-color="rgb(45.698547%, 33.099365%, 95.08667%)" offset="0.285156"/><stop stop-opacity="1" stop-color="rgb(45.498657%, 33.299255%, 94.898987%)" offset="0.289062"/><stop stop-opacity="1" stop-color="rgb(45.304871%, 33.493042%, 94.898987%)" offset="0.296875"/><stop stop-opacity="1" stop-color="rgb(44.90509%, 33.877563%, 94.898987%)" offset="0.300781"/><stop stop-opacity="1" stop-color="rgb(44.699097%, 34.068298%, 94.898987%)" offset="0.304688"/><stop stop-opacity="1" stop-color="rgb(44.499207%, 34.259033%, 94.699097%)" offset="0.308594"/><stop stop-opacity="1" stop-color="rgb(44.299316%, 34.449768%, 94.499207%)" offset="0.3125"/><stop stop-opacity="1" stop-color="rgb(44.082642%, 34.674072%, 94.499207%)" offset="0.316406"/><stop stop-opacity="1" stop-color="rgb(43.867493%, 34.899902%, 94.499207%)" offset="0.320312"/><stop stop-opacity="1" stop-color="rgb(43.482971%, 35.099792%, 94.493103%)" offset="0.324219"/><stop stop-opacity="1" stop-color="rgb(43.099976%, 35.299683%, 94.487%)" offset="0.328125"/><stop stop-opacity="1" stop-color="rgb(42.901611%, 35.496521%, 94.293213%)" offset="0.332031"/><stop stop-opacity="1" stop-color="rgb(42.704773%, 35.693359%, 94.099426%)" offset="0.335938"/><stop stop-opacity="1" stop-color="rgb(42.56134%, 35.884094%, 94.099426%)" offset="0.34375"/><stop stop-opacity="1" stop-color="rgb(42.230225%, 36.264038%, 94.099426%)" offset="0.351562"/><stop stop-opacity="1" stop-color="rgb(41.801453%, 36.676025%, 93.899536%)" offset="0.355469"/><stop stop-opacity="1" stop-color="rgb(41.56189%, 36.898804%, 93.699646%)" offset="0.359375"/><stop stop-opacity="1" stop-color="rgb(41.371155%, 37.098694%, 93.699646%)" offset="0.363281"/><stop stop-opacity="1" stop-color="rgb(41.18042%, 37.298584%, 93.699646%)" offset="0.367188"/><stop stop-opacity="1" stop-color="rgb(40.789795%, 37.44812%, 93.499756%)" offset="0.371094"/><stop stop-opacity="1" stop-color="rgb(40.39917%, 37.599182%, 93.299866%)" offset="0.375"/><stop stop-opacity="1" stop-color="rgb(40.208435%, 37.789917%, 93.299866%)" offset="0.382812"/><stop stop-opacity="1" stop-color="rgb(39.826965%, 38.171387%, 93.299866%)" offset="0.390625"/><stop stop-opacity="1" stop-color="rgb(39.395142%, 38.580322%, 93.09845%)" offset="0.394531"/><stop stop-opacity="1" stop-color="rgb(39.155579%, 38.798523%, 92.89856%)" offset="0.398438"/><stop stop-opacity="1" stop-color="rgb(38.964844%, 38.998413%, 92.89856%)" offset="0.402344"/><stop stop-opacity="1" stop-color="rgb(38.774109%, 39.199829%, 92.89856%)" offset="0.40625"/><stop stop-opacity="1" stop-color="rgb(38.583374%, 39.399719%, 92.89856%)" offset="0.410156"/><stop stop-opacity="1" stop-color="rgb(38.392639%, 39.599609%, 92.89856%)" offset="0.414062"/><stop stop-opacity="1" stop-color="rgb(38.195801%, 39.793396%, 92.704773%)" offset="0.417969"/><stop stop-opacity="1" stop-color="rgb(37.998962%, 39.987183%, 92.510986%)" offset="0.421875"/><stop stop-opacity="1" stop-color="rgb(37.660217%, 40.177917%, 92.504883%)" offset="0.425781"/><stop stop-opacity="1" stop-color="rgb(37.322998%, 40.368652%, 92.498779%)" offset="0.429688"/><stop stop-opacity="1" stop-color="rgb(37.135315%, 40.557861%, 92.498779%)" offset="0.4375"/><stop stop-opacity="1" stop-color="rgb(36.723328%, 40.9729%, 92.349243%)" offset="0.441406"/><stop stop-opacity="1" stop-color="rgb(36.499023%, 41.19873%, 92.199707%)" offset="0.445312"/><stop stop-opacity="1" stop-color="rgb(36.29303%, 41.398621%, 92.199707%)" offset="0.449219"/><stop stop-opacity="1" stop-color="rgb(36.087036%, 41.598511%, 92.199707%)" offset="0.453125"/><stop stop-opacity="1" stop-color="rgb(35.89325%, 41.795349%, 92.199707%)" offset="0.457031"/><stop stop-opacity="1" stop-color="rgb(35.699463%, 41.993713%, 92.199707%)" offset="0.460938"/><stop stop-opacity="1" stop-color="rgb(35.499573%, 42.182922%, 92.012024%)" offset="0.464844"/><stop stop-opacity="1" stop-color="rgb(35.299683%, 42.373657%, 91.824341%)" offset="0.46875"/><stop stop-opacity="1" stop-color="rgb(34.921265%, 42.520142%, 91.812134%)" offset="0.472656"/><stop stop-opacity="1" stop-color="rgb(34.542847%, 42.666626%, 91.799927%)" offset="0.476562"/><stop stop-opacity="1" stop-color="rgb(34.320068%, 42.883301%, 91.799927%)" offset="0.480469"/><stop stop-opacity="1" stop-color="rgb(34.098816%, 43.099976%, 91.799927%)" offset="0.484375"/><stop stop-opacity="1" stop-color="rgb(33.898926%, 43.299866%, 91.598511%)" offset="0.488281"/><stop stop-opacity="1" stop-color="rgb(33.699036%, 43.499756%, 91.398621%)" offset="0.492188"/><stop stop-opacity="1" stop-color="rgb(33.499146%, 43.699646%, 91.398621%)" offset="0.496094"/><stop stop-opacity="1" stop-color="rgb(33.299255%, 43.899536%, 91.398621%)" offset="0.5"/><stop stop-opacity="1" stop-color="rgb(33.099365%, 44.099426%, 91.398621%)" offset="0.503906"/><stop stop-opacity="1" stop-color="rgb(32.899475%, 44.299316%, 91.398621%)" offset="0.507812"/><stop stop-opacity="1" stop-color="rgb(32.699585%, 44.499207%, 91.19873%)" offset="0.511719"/><stop stop-opacity="1" stop-color="rgb(32.499695%, 44.699097%, 90.99884%)" offset="0.515625"/><stop stop-opacity="1" stop-color="rgb(32.327271%, 44.920349%, 90.99884%)" offset="0.519531"/><stop stop-opacity="1" stop-color="rgb(32.154846%, 45.143127%, 90.99884%)" offset="0.523438"/><stop stop-opacity="1" stop-color="rgb(31.776428%, 45.333862%, 90.986633%)" offset="0.527344"/><stop stop-opacity="1" stop-color="rgb(31.399536%, 45.524597%, 90.974426%)" offset="0.53125"/><stop stop-opacity="1" stop-color="rgb(31.199646%, 45.715332%, 90.786743%)" offset="0.535156"/><stop stop-opacity="1" stop-color="rgb(30.999756%, 45.906067%, 90.59906%)" offset="0.539062"/><stop stop-opacity="1" stop-color="rgb(30.805969%, 46.102905%, 90.59906%)" offset="0.542969"/><stop stop-opacity="1" stop-color="rgb(30.612183%, 46.299744%, 90.59906%)" offset="0.546875"/><stop stop-opacity="1" stop-color="rgb(30.404663%, 46.499634%, 90.59906%)" offset="0.550781"/><stop stop-opacity="1" stop-color="rgb(30.198669%, 46.699524%, 90.59906%)" offset="0.554688"/><stop stop-opacity="1" stop-color="rgb(29.998779%, 46.899414%, 90.39917%)" offset="0.558594"/><stop stop-opacity="1" stop-color="rgb(29.798889%, 47.099304%, 90.19928%)" offset="0.5625"/><stop stop-opacity="1" stop-color="rgb(29.58374%, 47.309875%, 90.19928%)" offset="0.566406"/><stop stop-opacity="1" stop-color="rgb(29.368591%, 47.521973%, 90.19928%)" offset="0.570312"/><stop stop-opacity="1" stop-color="rgb(28.98407%, 47.666931%, 90.193176%)" offset="0.574219"/><stop stop-opacity="1" stop-color="rgb(28.599548%, 47.81189%, 90.187073%)" offset="0.578125"/><stop stop-opacity="1" stop-color="rgb(28.40271%, 48.005676%, 89.993286%)" offset="0.582031"/><stop stop-opacity="1" stop-color="rgb(28.205872%, 48.199463%, 89.7995%)" offset="0.585938"/><stop stop-opacity="1" stop-color="rgb(28.015137%, 48.399353%, 89.7995%)" offset="0.589844"/><stop stop-opacity="1" stop-color="rgb(27.824402%, 48.599243%, 89.7995%)" offset="0.59375"/><stop stop-opacity="1" stop-color="rgb(27.677917%, 48.799133%, 89.7995%)" offset="0.597656"/><stop stop-opacity="1" stop-color="rgb(27.531433%, 48.999023%, 89.7995%)" offset="0.601562"/><stop stop-opacity="1" stop-color="rgb(27.296448%, 49.217224%, 89.599609%)" offset="0.605469"/><stop stop-opacity="1" stop-color="rgb(27.061462%, 49.436951%, 89.399719%)" offset="0.609375"/><stop stop-opacity="1" stop-color="rgb(26.870728%, 49.627686%, 89.399719%)" offset="0.617188"/><stop stop-opacity="1" stop-color="rgb(26.289368%, 50.009155%, 89.199829%)" offset="0.621094"/><stop stop-opacity="1" stop-color="rgb(25.898743%, 50.19989%, 88.999939%)" offset="0.625"/><stop stop-opacity="1" stop-color="rgb(25.708008%, 50.39978%, 88.999939%)" offset="0.628906"/><stop stop-opacity="1" stop-color="rgb(25.517273%, 50.59967%, 88.999939%)" offset="0.632812"/><stop stop-opacity="1" stop-color="rgb(25.326538%, 50.799561%, 88.999939%)" offset="0.636719"/><stop stop-opacity="1" stop-color="rgb(25.137329%, 50.999451%, 88.999939%)" offset="0.640625"/><stop stop-opacity="1" stop-color="rgb(24.89624%, 51.220703%, 88.798523%)" offset="0.644531"/><stop stop-opacity="1" stop-color="rgb(24.655151%, 51.443481%, 88.598633%)" offset="0.648438"/><stop stop-opacity="1" stop-color="rgb(24.464417%, 51.634216%, 88.598633%)" offset="0.65625"/><stop stop-opacity="1" stop-color="rgb(24.082947%, 52.01416%, 88.598633%)" offset="0.664062"/><stop stop-opacity="1" stop-color="rgb(23.695374%, 52.351379%, 88.404846%)" offset="0.667969"/><stop stop-opacity="1" stop-color="rgb(23.498535%, 52.49939%, 88.21106%)" offset="0.671875"/><stop stop-opacity="1" stop-color="rgb(23.114014%, 52.69928%, 88.204956%)" offset="0.675781"/><stop stop-opacity="1" stop-color="rgb(22.731018%, 52.89917%, 88.198853%)" offset="0.679688"/><stop stop-opacity="1" stop-color="rgb(22.583008%, 53.09906%, 88.198853%)" offset="0.683594"/><stop stop-opacity="1" stop-color="rgb(22.436523%, 53.29895%, 88.198853%)" offset="0.6875"/><stop stop-opacity="1" stop-color="rgb(22.216797%, 53.514099%, 87.998962%)" offset="0.691406"/><stop stop-opacity="1" stop-color="rgb(21.998596%, 53.730774%, 87.799072%)" offset="0.695312"/><stop stop-opacity="1" stop-color="rgb(21.792603%, 53.921509%, 87.799072%)" offset="0.699219"/><stop stop-opacity="1" stop-color="rgb(21.586609%, 54.112244%, 87.799072%)" offset="0.703125"/><stop stop-opacity="1" stop-color="rgb(21.392822%, 54.30603%, 87.799072%)" offset="0.710938"/><stop stop-opacity="1" stop-color="rgb(20.999146%, 54.699707%, 87.658691%)" offset="0.714844"/><stop stop-opacity="1" stop-color="rgb(20.799255%, 54.899597%, 87.518311%)" offset="0.71875"/><stop stop-opacity="1" stop-color="rgb(20.420837%, 55.099487%, 87.509155%)" offset="0.722656"/><stop stop-opacity="1" stop-color="rgb(20.042419%, 55.299377%, 87.5%)" offset="0.726562"/><stop stop-opacity="1" stop-color="rgb(19.821167%, 55.517578%, 87.5%)" offset="0.730469"/><stop stop-opacity="1" stop-color="rgb(19.599915%, 55.737305%, 87.5%)" offset="0.734375"/><stop stop-opacity="1" stop-color="rgb(19.398499%, 55.926514%, 87.298584%)" offset="0.738281"/><stop stop-opacity="1" stop-color="rgb(19.198608%, 56.117249%, 87.098694%)" offset="0.742188"/><stop stop-opacity="1" stop-color="rgb(18.998718%, 56.307983%, 87.098694%)" offset="0.746094"/><stop stop-opacity="1" stop-color="rgb(18.798828%, 56.498718%, 87.098694%)" offset="0.75"/><stop stop-opacity="1" stop-color="rgb(18.598938%, 56.889343%, 87.098694%)" offset="0.753906"/><stop stop-opacity="1" stop-color="rgb(18.399048%, 57.279968%, 87.098694%)" offset="0.757812"/><stop stop-opacity="1" stop-color="rgb(18.199158%, 57.424927%, 86.898804%)" offset="0.761719"/><stop stop-opacity="1" stop-color="rgb(17.999268%, 57.571411%, 86.698914%)" offset="0.765625"/><stop stop-opacity="1" stop-color="rgb(17.782593%, 57.785034%, 86.698914%)" offset="0.769531"/><stop stop-opacity="1" stop-color="rgb(17.565918%, 57.998657%, 86.698914%)" offset="0.773438"/><stop stop-opacity="1" stop-color="rgb(17.23175%, 58.198547%, 86.686707%)" offset="0.777344"/><stop stop-opacity="1" stop-color="rgb(16.899109%, 58.399963%, 86.6745%)" offset="0.78125"/><stop stop-opacity="1" stop-color="rgb(16.699219%, 58.599854%, 86.486816%)" offset="0.785156"/><stop stop-opacity="1" stop-color="rgb(16.499329%, 58.799744%, 86.299133%)" offset="0.789062"/><stop stop-opacity="1" stop-color="rgb(16.305542%, 58.99353%, 86.299133%)" offset="0.796875"/><stop stop-opacity="1" stop-color="rgb(15.905762%, 59.376526%, 86.299133%)" offset="0.800781"/><stop stop-opacity="1" stop-color="rgb(15.699768%, 59.567261%, 86.299133%)" offset="0.804688"/><stop stop-opacity="1" stop-color="rgb(15.499878%, 59.757996%, 86.099243%)" offset="0.808594"/><stop stop-opacity="1" stop-color="rgb(15.299988%, 59.94873%, 85.899353%)" offset="0.8125"/><stop stop-opacity="1" stop-color="rgb(15.083313%, 60.173035%, 85.899353%)" offset="0.816406"/><stop stop-opacity="1" stop-color="rgb(14.868164%, 60.398865%, 85.899353%)" offset="0.820312"/><stop stop-opacity="1" stop-color="rgb(14.483643%, 60.598755%, 85.89325%)" offset="0.824219"/><stop stop-opacity="1" stop-color="rgb(14.099121%, 60.798645%, 85.887146%)" offset="0.828125"/><stop stop-opacity="1" stop-color="rgb(13.902283%, 60.995483%, 85.693359%)" offset="0.832031"/><stop stop-opacity="1" stop-color="rgb(13.705444%, 61.192322%, 85.499573%)" offset="0.835938"/><stop stop-opacity="1" stop-color="rgb(13.514709%, 61.383057%, 85.499573%)" offset="0.84375"/><stop stop-opacity="1" stop-color="rgb(13.13324%, 61.764526%, 85.499573%)" offset="0.851562"/><stop stop-opacity="1" stop-color="rgb(12.705994%, 62.176514%, 85.299683%)" offset="0.855469"/><stop stop-opacity="1" stop-color="rgb(12.471008%, 62.399292%, 85.099792%)" offset="0.859375"/><stop stop-opacity="1" stop-color="rgb(12.32605%, 62.548828%, 85.099792%)" offset="0.867188"/><stop stop-opacity="1" stop-color="rgb(11.790466%, 62.89978%, 84.898376%)" offset="0.871094"/><stop stop-opacity="1" stop-color="rgb(11.399841%, 63.09967%, 84.698486%)" offset="0.875"/><stop stop-opacity="1" stop-color="rgb(11.209106%, 63.290405%, 84.698486%)" offset="0.882812"/><stop stop-opacity="1" stop-color="rgb(10.827637%, 63.670349%, 84.698486%)" offset="0.890625"/><stop stop-opacity="1" stop-color="rgb(10.395813%, 64.079285%, 84.498596%)" offset="0.894531"/><stop stop-opacity="1" stop-color="rgb(10.154724%, 64.299011%, 84.298706%)" offset="0.898438"/><stop stop-opacity="1" stop-color="rgb(9.963989%, 64.498901%, 84.298706%)" offset="0.902344"/><stop stop-opacity="1" stop-color="rgb(9.77478%, 64.698792%, 84.298706%)" offset="0.90625"/><stop stop-opacity="1" stop-color="rgb(9.584045%, 64.898682%, 84.298706%)" offset="0.910156"/><stop stop-opacity="1" stop-color="rgb(9.393311%, 65.098572%, 84.298706%)" offset="0.914062"/><stop stop-opacity="1" stop-color="rgb(9.196472%, 65.292358%, 84.104919%)" offset="0.917969"/><stop stop-opacity="1" stop-color="rgb(8.999634%, 65.486145%, 83.911133%)" offset="0.921875"/><stop stop-opacity="1" stop-color="rgb(8.615112%, 65.67688%, 83.905029%)" offset="0.925781"/><stop stop-opacity="1" stop-color="rgb(8.230591%, 65.867615%, 83.898926%)" offset="0.929688"/><stop stop-opacity="1" stop-color="rgb(8.039856%, 66.05835%, 83.898926%)" offset="0.9375"/><stop stop-opacity="1" stop-color="rgb(7.673645%, 66.473389%, 83.699036%)" offset="0.941406"/><stop stop-opacity="1" stop-color="rgb(7.499695%, 66.699219%, 83.499146%)" offset="0.945312"/><stop stop-opacity="1" stop-color="rgb(7.292175%, 66.899109%, 83.499146%)" offset="0.949219"/><stop stop-opacity="1" stop-color="rgb(7.086182%, 67.098999%, 83.499146%)" offset="0.953125"/><stop stop-opacity="1" stop-color="rgb(6.892395%, 67.295837%, 83.499146%)" offset="0.957031"/><stop stop-opacity="1" stop-color="rgb(6.698608%, 67.492676%, 83.499146%)" offset="0.960938"/><stop stop-opacity="1" stop-color="rgb(6.498718%, 67.636108%, 83.311462%)" offset="0.964844"/><stop stop-opacity="1" stop-color="rgb(6.298828%, 67.781067%, 83.123779%)" offset="0.96875"/><stop stop-opacity="1" stop-color="rgb(5.92041%, 67.967224%, 83.111572%)" offset="0.972656"/><stop stop-opacity="1" stop-color="rgb(5.543518%, 68.154907%, 83.099365%)" offset="0.976562"/><stop stop-opacity="1" stop-color="rgb(5.32074%, 68.37616%, 83.099365%)" offset="0.980469"/><stop stop-opacity="1" stop-color="rgb(5.099487%, 68.598938%, 83.099365%)" offset="0.984375"/><stop stop-opacity="1" stop-color="rgb(4.899597%, 68.798828%, 82.899475%)" offset="0.988281"/><stop stop-opacity="1" stop-color="rgb(4.699707%, 68.998718%, 82.699585%)" offset="0.992188"/><stop stop-opacity="1" stop-color="rgb(4.499817%, 69.198608%, 82.699585%)" offset="0.996094"/><stop stop-opacity="1" stop-color="rgb(4.299927%, 69.398499%, 82.699585%)" offset="1"/></linearGradient></defs><g clip-path="url(#id1)"><g clip-path="url(#id2)"><rect x="-76.8" fill="url(#id3)" width="921.6" y="-76.799999" height="921.599993"/></g></g></svg>