<svg xmlns="http://www.w3.org/2000/svg" xmlns:xlink="http://www.w3.org/1999/xlink" width="1024" zoomAndPan="magnify" viewBox="0 0 768 767.999994" height="1024" preserveAspectRatio="xMidYMid meet" version="1.0"><defs><clipPath id="id1"><path d="M 644.128906 569.804688 L 569.804688 569.804688 L 569.804688 545.03125 L 644.128906 545.03125 Z M 644.128906 520.257812 L 569.804688 520.257812 L 569.804688 495.484375 L 644.128906 495.484375 Z M 644.128906 470.710938 L 569.804688 470.710938 L 569.804688 445.933594 L 644.128906 445.933594 Z M 644.128906 421.160156 L 569.804688 421.160156 L 569.804688 396.386719 L 644.128906 396.386719 Z M 520.257812 545.03125 L 495.484375 545.03125 L 495.484375 421.160156 L 520.257812 421.160156 Z M 445.933594 545.03125 L 445.933594 445.933594 L 470.710938 445.933594 L 470.710938 545.03125 Z M 346.839844 495.484375 L 371.613281 495.484375 L 371.613281 545.03125 L 346.839844 545.03125 Z M 421.160156 470.710938 L 421.160156 545.03125 L 396.386719 545.03125 L 396.386719 470.710938 Z M 545.03125 396.386719 L 470.710938 396.386719 L 470.710938 421.160156 L 421.160156 421.160156 L 421.160156 445.933594 L 371.613281 445.933594 L 371.613281 470.710938 L 322.066406 470.710938 L 322.066406 569.804688 L 545.03125 569.804688 Z M 346.839844 74.324219 L 322.066406 74.324219 L 322.066406 49.546875 L 346.839844 49.546875 Z M 396.386719 74.324219 L 371.613281 74.324219 L 371.613281 49.546875 L 396.386719 49.546875 Z M 198.195312 74.324219 L 173.417969 74.324219 L 173.417969 49.546875 L 198.195312 49.546875 Z M 247.742188 74.324219 L 222.96875 74.324219 L 222.96875 49.546875 L 247.742188 49.546875 Z M 297.289062 74.324219 L 272.515625 74.324219 L 272.515625 49.546875 L 297.289062 49.546875 Z M 148.644531 74.324219 L 123.871094 74.324219 L 123.871094 49.546875 L 148.644531 49.546875 Z M 668.902344 594.582031 L 297.289062 594.582031 L 297.289062 371.613281 L 668.902344 371.613281 Z M 668.902344 346.839844 L 297.289062 346.839844 C 283.644531 346.839844 272.515625 357.96875 272.515625 371.613281 L 272.515625 594.582031 C 272.515625 608.226562 283.644531 619.355469 297.289062 619.355469 L 668.902344 619.355469 C 682.546875 619.355469 693.675781 608.226562 693.675781 594.582031 L 693.675781 371.613281 C 693.675781 357.96875 682.546875 346.839844 668.902344 346.839844 Z M 743.226562 706.066406 C 743.226562 726.582031 726.582031 743.226562 706.0625 743.226562 L 260.128906 743.226562 C 239.613281 743.226562 222.96875 726.582031 222.96875 706.066406 L 222.96875 668.902344 L 385.257812 668.902344 C 391.015625 697.160156 416.03125 718.453125 445.933594 718.453125 L 520.257812 718.453125 C 550.160156 718.453125 575.175781 697.160156 580.933594 668.902344 L 743.226562 668.902344 Z M 555.144531 668.902344 C 550.015625 683.273438 536.371094 693.675781 520.257812 693.675781 L 445.933594 693.675781 C 429.824219 693.675781 416.175781 683.273438 411.046875 668.902344 Z M 247.742188 359.226562 C 247.742188 338.710938 264.386719 322.066406 284.902344 322.066406 L 681.289062 322.066406 C 701.804688 322.066406 718.453125 338.710938 718.453125 359.226562 L 718.453125 644.128906 L 247.742188 644.128906 Z M 24.773438 557.417969 L 24.773438 487.695312 C 73.257812 512.417969 179.660156 518.324219 222.96875 519.675781 L 222.96875 593.953125 C 93.773438 590.082031 29.128906 567.824219 24.773438 557.417969 Z M 57.144531 442.984375 C 103.304688 463.160156 186.339844 468.582031 222.96875 470.03125 L 222.96875 494.855469 C 94.257812 490.984375 29.660156 468.917969 24.773438 459.097656 L 24.773438 458.804688 C 25.210938 458.082031 30.195312 451.160156 57.144531 442.984375 Z M 222.96875 420.582031 L 222.96875 445.210938 C 105.917969 440.804688 52.113281 417.871094 49.5 409.066406 C 49.546875 409.066406 50.710938 405.917969 59.417969 401.175781 C 112.886719 415.453125 188.226562 419.46875 222.96875 420.582031 Z M 24.773438 359.226562 L 24.773438 289.402344 C 74.613281 314.757812 186.386719 320.417969 235.984375 321.675781 C 227.953125 332.128906 222.96875 345.046875 222.96875 359.226562 L 222.96875 395.757812 C 93.773438 391.886719 29.128906 369.628906 24.773438 359.226562 Z M 57.339844 244.742188 C 105.871094 265.933594 198.144531 272.515625 260.128906 272.515625 C 322.113281 272.515625 414.386719 265.933594 462.917969 244.742188 C 490.160156 252.96875 494.953125 260.03125 495.53125 259.644531 C 489.675781 273.195312 406.355469 297.289062 260.128906 297.289062 C 113.953125 297.289062 30.726562 273.242188 24.773438 260.902344 L 24.773438 260.613281 C 25.210938 259.886719 30.195312 252.917969 57.339844 244.742188 Z M 260.128906 222.96875 C 267.386719 222.96875 386.175781 222.628906 460.695312 202.886719 C 468.96875 207.386719 470.515625 210.386719 470.710938 210.386719 C 466.886719 223.453125 391.355469 247.742188 260.128906 247.742188 C 128.757812 247.742188 53.175781 223.402344 49.5 210.871094 C 49.546875 210.871094 50.757812 207.675781 59.566406 202.886719 C 134.082031 222.628906 252.871094 222.96875 260.128906 222.96875 Z M 24.773438 161.03125 L 24.773438 91.210938 C 88.066406 123.386719 251.566406 123.871094 260.128906 123.871094 C 268.695312 123.871094 432.242188 123.386719 495.53125 91.160156 L 495.582031 160.453125 C 490.113281 174 406.742188 198.195312 260.128906 198.195312 C 113.515625 198.195312 30.144531 174 24.773438 161.03125 Z M 260.128906 24.773438 C 404.613281 24.773438 487.695312 48.289062 495.289062 61.933594 C 487.695312 75.582031 404.613281 99.097656 260.128906 99.097656 C 113.902344 99.097656 30.675781 75.046875 24.773438 62.613281 L 24.773438 62.417969 C 30.675781 48.824219 113.902344 24.773438 260.128906 24.773438 Z M 476.273438 297.289062 C 483.339844 294.871094 489.824219 292.257812 495.484375 289.402344 L 495.484375 297.289062 Z M 743.226562 644.128906 L 743.226562 359.226562 C 743.226562 325.066406 715.453125 297.289062 681.289062 297.289062 L 520.257812 297.289062 L 520.257812 260.128906 C 520.257812 247.066406 510.046875 236.515625 488.710938 227.515625 C 493.0625 222.433594 495.484375 216.824219 495.484375 210.582031 C 495.484375 204.484375 493.160156 198.773438 488.660156 193.5 C 507.917969 185.226562 520.257812 174.628906 520.257812 161.03125 L 520.257812 61.933594 C 520.257812 0.675781 270.726562 0 260.128906 0 C 249.53125 0 0 0.675781 0 61.933594 L 0 161.03125 C 0 174.628906 12.339844 185.226562 31.597656 193.5 C 27.097656 198.773438 24.773438 204.484375 24.773438 210.582031 C 24.773438 216.824219 27.195312 222.433594 31.546875 227.515625 C 10.210938 236.515625 0 247.066406 0 260.128906 L 0 359.226562 C 0 372.871094 12.386719 383.515625 31.546875 391.789062 C 27.046875 397.015625 24.773438 402.726562 24.773438 408.773438 C 24.773438 415.066406 27.242188 420.675781 31.5 425.710938 C 10.210938 434.710938 0 445.257812 0 458.324219 L 0 557.417969 C 0 607.402344 166.015625 616.984375 222.96875 618.773438 L 222.96875 644.128906 L 198.195312 644.128906 L 198.195312 706.066406 C 198.195312 740.226562 225.96875 768 260.128906 768 L 706.0625 768 C 740.226562 768 768 740.226562 768 706.066406 L 768 644.128906 Z M 743.226562 644.128906 " clip-rule="nonzero"/></clipPath><clipPath id="id2"><path d="M 644.128906 569.804688 L 569.804688 569.804688 L 569.804688 545.03125 L 644.128906 545.03125 Z M 644.128906 520.257812 L 569.804688 520.257812 L 569.804688 495.484375 L 644.128906 495.484375 Z M 644.128906 470.710938 L 569.804688 470.710938 L 569.804688 445.933594 L 644.128906 445.933594 Z M 644.128906 421.160156 L 569.804688 421.160156 L 569.804688 396.386719 L 644.128906 396.386719 Z M 520.257812 545.03125 L 495.484375 545.03125 L 495.484375 421.160156 L 520.257812 421.160156 Z M 445.933594 545.03125 L 445.933594 445.933594 L 470.710938 445.933594 L 470.710938 545.03125 Z M 346.839844 495.484375 L 371.613281 495.484375 L 371.613281 545.03125 L 346.839844 545.03125 Z M 421.160156 470.710938 L 421.160156 545.03125 L 396.386719 545.03125 L 396.386719 470.710938 Z M 545.03125 396.386719 L 470.710938 396.386719 L 470.710938 421.160156 L 421.160156 421.160156 L 421.160156 445.933594 L 371.613281 445.933594 L 371.613281 470.710938 L 322.066406 470.710938 L 322.066406 569.804688 L 545.03125 569.804688 Z M 346.839844 74.324219 L 322.066406 74.324219 L 322.066406 49.546875 L 346.839844 49.546875 Z M 396.386719 74.324219 L 371.613281 74.324219 L 371.613281 49.546875 L 396.386719 49.546875 Z M 198.195312 74.324219 L 173.417969 74.324219 L 173.417969 49.546875 L 198.195312 49.546875 Z M 247.742188 74.324219 L 222.96875 74.324219 L 222.96875 49.546875 L 247.742188 49.546875 Z M 297.289062 74.324219 L 272.515625 74.324219 L 272.515625 49.546875 L 297.289062 49.546875 Z M 148.644531 74.324219 L 123.871094 74.324219 L 123.871094 49.546875 L 148.644531 49.546875 Z M 668.902344 594.582031 L 297.289062 594.582031 L 297.289062 371.613281 L 668.902344 371.613281 Z M 668.902344 346.839844 L 297.289062 346.839844 C 283.644531 346.839844 272.515625 357.96875 272.515625 371.613281 L 272.515625 594.582031 C 272.515625 608.226562 283.644531 619.355469 297.289062 619.355469 L 668.902344 619.355469 C 682.546875 619.355469 693.675781 608.226562 693.675781 594.582031 L 693.675781 371.613281 C 693.675781 357.96875 682.546875 346.839844 668.902344 346.839844 Z M 743.226562 706.066406 C 743.226562 726.582031 726.582031 743.226562 706.0625 743.226562 L 260.128906 743.226562 C 239.613281 743.226562 222.96875 726.582031 222.96875 706.066406 L 222.96875 668.902344 L 385.257812 668.902344 C 391.015625 697.160156 416.03125 718.453125 445.933594 718.453125 L 520.257812 718.453125 C 550.160156 718.453125 575.175781 697.160156 580.933594 668.902344 L 743.226562 668.902344 Z M 555.144531 668.902344 C 550.015625 683.273438 536.371094 693.675781 520.257812 693.675781 L 445.933594 693.675781 C 429.824219 693.675781 416.175781 683.273438 411.046875 668.902344 Z M 247.742188 359.226562 C 247.742188 338.710938 264.386719 322.066406 284.902344 322.066406 L 681.289062 322.066406 C 701.804688 322.066406 718.453125 338.710938 718.453125 359.226562 L 718.453125 644.128906 L 247.742188 644.128906 Z M 24.773438 557.417969 L 24.773438 487.695312 C 73.257812 512.417969 179.660156 518.324219 222.96875 519.675781 L 222.96875 593.953125 C 93.773438 590.082031 29.128906 567.824219 24.773438 557.417969 Z M 57.144531 442.984375 C 103.304688 463.160156 186.339844 468.582031 222.96875 470.03125 L 222.96875 494.855469 C 94.257812 490.984375 29.660156 468.917969 24.773438 459.097656 L 24.773438 458.804688 C 25.210938 458.082031 30.195312 451.160156 57.144531 442.984375 Z M 222.96875 420.582031 L 222.96875 445.210938 C 105.917969 440.804688 52.113281 417.871094 49.5 409.066406 C 49.546875 409.066406 50.710938 405.917969 59.417969 401.175781 C 112.886719 415.453125 188.226562 419.46875 222.96875 420.582031 Z M 24.773438 359.226562 L 24.773438 289.402344 C 74.613281 314.757812 186.386719 320.417969 235.984375 321.675781 C 227.953125 332.128906 222.96875 345.046875 222.96875 359.226562 L 222.96875 395.757812 C 93.773438 391.886719 29.128906 369.628906 24.773438 359.226562 Z M 57.339844 244.742188 C 105.871094 265.933594 198.144531 272.515625 260.128906 272.515625 C 322.113281 272.515625 414.386719 265.933594 462.917969 244.742188 C 490.160156 252.96875 494.953125 260.03125 495.53125 259.644531 C 489.675781 273.195312 406.355469 297.289062 260.128906 297.289062 C 113.953125 297.289062 30.726562 273.242188 24.773438 260.902344 L 24.773438 260.613281 C 25.210938 259.886719 30.195312 252.917969 57.339844 244.742188 Z M 260.128906 222.96875 C 267.386719 222.96875 386.175781 222.628906 460.695312 202.886719 C 468.96875 207.386719 470.515625 210.386719 470.710938 210.386719 C 466.886719 223.453125 391.355469 247.742188 260.128906 247.742188 C 128.757812 247.742188 53.175781 223.402344 49.5 210.871094 C 49.546875 210.871094 50.757812 207.675781 59.566406 202.886719 C 134.082031 222.628906 252.871094 222.96875 260.128906 222.96875 Z M 24.773438 161.03125 L 24.773438 91.210938 C 88.066406 123.386719 251.566406 123.871094 260.128906 123.871094 C 268.695312 123.871094 432.242188 123.386719 495.53125 91.160156 L 495.582031 160.453125 C 490.113281 174 406.742188 198.195312 260.128906 198.195312 C 113.515625 198.195312 30.144531 174 24.773438 161.03125 Z M 260.128906 24.773438 C 404.613281 24.773438 487.695312 48.289062 495.289062 61.933594 C 487.695312 75.582031 404.613281 99.097656 260.128906 99.097656 C 113.902344 99.097656 30.675781 75.046875 24.773438 62.613281 L 24.773438 62.417969 C 30.675781 48.824219 113.902344 24.773438 260.128906 24.773438 Z M 476.273438 297.289062 C 483.339844 294.871094 489.824219 292.257812 495.484375 289.402344 L 495.484375 297.289062 Z M 743.226562 644.128906 L 743.226562 359.226562 C 743.226562 325.066406 715.453125 297.289062 681.289062 297.289062 L 520.257812 297.289062 L 520.257812 260.128906 C 520.257812 247.066406 510.046875 236.515625 488.710938 227.515625 C 493.0625 222.433594 495.484375 216.824219 495.484375 210.582031 C 495.484375 204.484375 493.160156 198.773438 488.660156 193.5 C 507.917969 185.226562 520.257812 174.628906 520.257812 161.03125 L 520.257812 61.933594 C 520.257812 0.675781 270.726562 0 260.128906 0 C 249.53125 0 0 0.675781 0 61.933594 L 0 161.03125 C 0 174.628906 12.339844 185.226562 31.597656 193.5 C 27.097656 198.773438 24.773438 204.484375 24.773438 210.582031 C 24.773438 216.824219 27.195312 222.433594 31.546875 227.515625 C 10.210938 236.515625 0 247.066406 0 260.128906 L 0 359.226562 C 0 372.871094 12.386719 383.515625 31.546875 391.789062 C 27.046875 397.015625 24.773438 402.726562 24.773438 408.773438 C 24.773438 415.066406 27.242188 420.675781 31.5 425.710938 C 10.210938 434.710938 0 445.257812 0 458.324219 L 0 557.417969 C 0 607.402344 166.015625 616.984375 222.96875 618.773438 L 222.96875 644.128906 L 198.195312 644.128906 L 198.195312 706.066406 C 198.195312 740.226562 225.96875 768 260.128906 768 L 706.0625 768 C 740.226562 768 768 740.226562 768 706.066406 L 768 644.128906 L 743.226562 644.128906 " clip-rule="nonzero"/></clipPath><linearGradient x1="0.0000000209635" gradientTransform="matrix(0, -767.999934, 767.999934, 0, 383.99997, 767.99995)" y1="0" x2="1" gradientUnits="userSpaceOnUse" y2="0" xlink:type="simple" xlink:actuate="onLoad" id="id3" xlink:show="other"><stop stop-opacity="1" stop-color="rgb(62.399292%, 18.399048%, 100%)" offset="0"/><stop stop-opacity="1" stop-color="rgb(62.199402%, 18.598938%, 100%)" offset="0.00390625"/><stop stop-opacity="1" stop-color="rgb(61.999512%, 18.798828%, 100%)" offset="0.0078125"/><stop stop-opacity="1" stop-color="rgb(61.799622%, 18.998718%, 99.798584%)" offset="0.0117187"/><stop stop-opacity="1" stop-color="rgb(61.599731%, 19.198608%, 99.598694%)" offset="0.015625"/><stop stop-opacity="1" stop-color="rgb(61.376953%, 19.419861%, 99.598694%)" offset="0.0195312"/><stop stop-opacity="1" stop-color="rgb(61.155701%, 19.642639%, 99.598694%)" offset="0.0234375"/><stop stop-opacity="1" stop-color="rgb(60.777283%, 19.833374%, 99.586487%)" offset="0.0273438"/><stop stop-opacity="1" stop-color="rgb(60.398865%, 20.024109%, 99.57428%)" offset="0.03125"/><stop stop-opacity="1" stop-color="rgb(60.198975%, 20.214844%, 99.386597%)" offset="0.0351562"/><stop stop-opacity="1" stop-color="rgb(59.999084%, 20.405579%, 99.198914%)" offset="0.0390625"/><stop stop-opacity="1" stop-color="rgb(59.805298%, 20.602417%, 99.198914%)" offset="0.0429688"/><stop stop-opacity="1" stop-color="rgb(59.611511%, 20.799255%, 99.198914%)" offset="0.046875"/><stop stop-opacity="1" stop-color="rgb(59.405518%, 20.999146%, 99.198914%)" offset="0.0507812"/><stop stop-opacity="1" stop-color="rgb(59.199524%, 21.199036%, 99.198914%)" offset="0.0546875"/><stop stop-opacity="1" stop-color="rgb(58.999634%, 21.398926%, 98.999023%)" offset="0.0585937"/><stop stop-opacity="1" stop-color="rgb(58.799744%, 21.598816%, 98.799133%)" offset="0.0625"/><stop stop-opacity="1" stop-color="rgb(58.583069%, 21.813965%, 98.799133%)" offset="0.0664062"/><stop stop-opacity="1" stop-color="rgb(58.36792%, 22.03064%, 98.799133%)" offset="0.0703125"/><stop stop-opacity="1" stop-color="rgb(57.983398%, 22.219849%, 98.79303%)" offset="0.0742188"/><stop stop-opacity="1" stop-color="rgb(57.598877%, 22.409058%, 98.786926%)" offset="0.078125"/><stop stop-opacity="1" stop-color="rgb(57.450867%, 22.554016%, 98.59314%)" offset="0.0859375"/><stop stop-opacity="1" stop-color="rgb(57.113647%, 22.898865%, 98.399353%)" offset="0.0898437"/><stop stop-opacity="1" stop-color="rgb(56.924438%, 23.098755%, 98.399353%)" offset="0.09375"/><stop stop-opacity="1" stop-color="rgb(56.733704%, 23.298645%, 98.399353%)" offset="0.0976562"/><stop stop-opacity="1" stop-color="rgb(56.542969%, 23.498535%, 98.399353%)" offset="0.101562"/><stop stop-opacity="1" stop-color="rgb(56.30188%, 23.716736%, 98.199463%)" offset="0.105469"/><stop stop-opacity="1" stop-color="rgb(56.062317%, 23.936462%, 97.999573%)" offset="0.109375"/><stop stop-opacity="1" stop-color="rgb(55.871582%, 24.127197%, 97.999573%)" offset="0.117187"/><stop stop-opacity="1" stop-color="rgb(55.290222%, 24.508667%, 97.799683%)" offset="0.121094"/><stop stop-opacity="1" stop-color="rgb(54.899597%, 24.699402%, 97.599792%)" offset="0.125"/><stop stop-opacity="1" stop-color="rgb(54.708862%, 24.899292%, 97.599792%)" offset="0.128906"/><stop stop-opacity="1" stop-color="rgb(54.518127%, 25.099182%, 97.599792%)" offset="0.132812"/><stop stop-opacity="1" stop-color="rgb(54.327393%, 25.299072%, 97.599792%)" offset="0.136719"/><stop stop-opacity="1" stop-color="rgb(54.136658%, 25.498962%, 97.599792%)" offset="0.140625"/><stop stop-opacity="1" stop-color="rgb(53.895569%, 25.720215%, 97.44873%)" offset="0.144531"/><stop stop-opacity="1" stop-color="rgb(53.656006%, 25.942993%, 97.299194%)" offset="0.148438"/><stop stop-opacity="1" stop-color="rgb(53.465271%, 26.133728%, 97.299194%)" offset="0.15625"/><stop stop-opacity="1" stop-color="rgb(53.083801%, 26.515198%, 97.299194%)" offset="0.164062"/><stop stop-opacity="1" stop-color="rgb(52.696228%, 26.902771%, 97.105408%)" offset="0.167969"/><stop stop-opacity="1" stop-color="rgb(52.49939%, 27.099609%, 96.911621%)" offset="0.171875"/><stop stop-opacity="1" stop-color="rgb(52.165222%, 27.2995%, 96.905518%)" offset="0.175781"/><stop stop-opacity="1" stop-color="rgb(51.831055%, 27.49939%, 96.899414%)" offset="0.179687"/><stop stop-opacity="1" stop-color="rgb(51.64032%, 27.648926%, 96.899414%)" offset="0.1875"/><stop stop-opacity="1" stop-color="rgb(51.223755%, 28.015137%, 96.699524%)" offset="0.191406"/><stop stop-opacity="1" stop-color="rgb(50.999451%, 28.230286%, 96.499634%)" offset="0.195312"/><stop stop-opacity="1" stop-color="rgb(50.793457%, 28.421021%, 96.499634%)" offset="0.199219"/><stop stop-opacity="1" stop-color="rgb(50.587463%, 28.611755%, 96.499634%)" offset="0.203125"/><stop stop-opacity="1" stop-color="rgb(50.393677%, 28.805542%, 96.499634%)" offset="0.210937"/><stop stop-opacity="1" stop-color="rgb(49.998474%, 29.199219%, 96.311951%)" offset="0.214844"/><stop stop-opacity="1" stop-color="rgb(49.798584%, 29.399109%, 96.124268%)" offset="0.21875"/><stop stop-opacity="1" stop-color="rgb(49.420166%, 29.598999%, 96.112061%)" offset="0.222656"/><stop stop-opacity="1" stop-color="rgb(49.043274%, 29.798889%, 96.099854%)" offset="0.226562"/><stop stop-opacity="1" stop-color="rgb(48.820496%, 30.01709%, 96.099854%)" offset="0.230469"/><stop stop-opacity="1" stop-color="rgb(48.599243%, 30.236816%, 96.099854%)" offset="0.234375"/><stop stop-opacity="1" stop-color="rgb(48.399353%, 30.427551%, 95.898438%)" offset="0.238281"/><stop stop-opacity="1" stop-color="rgb(48.199463%, 30.618286%, 95.698547%)" offset="0.242188"/><stop stop-opacity="1" stop-color="rgb(47.999573%, 30.809021%, 95.698547%)" offset="0.246094"/><stop stop-opacity="1" stop-color="rgb(47.799683%, 30.999756%, 95.698547%)" offset="0.25"/><stop stop-opacity="1" stop-color="rgb(47.648621%, 31.390381%, 95.698547%)" offset="0.253906"/><stop stop-opacity="1" stop-color="rgb(47.499084%, 31.781006%, 95.698547%)" offset="0.257812"/><stop stop-opacity="1" stop-color="rgb(47.299194%, 31.971741%, 95.498657%)" offset="0.261719"/><stop stop-opacity="1" stop-color="rgb(47.099304%, 32.162476%, 95.298767%)" offset="0.265625"/><stop stop-opacity="1" stop-color="rgb(46.876526%, 32.330322%, 95.298767%)" offset="0.269531"/><stop stop-opacity="1" stop-color="rgb(46.655273%, 32.499695%, 95.298767%)" offset="0.273438"/><stop stop-opacity="1" stop-color="rgb(46.276855%, 32.699585%, 95.28656%)" offset="0.277344"/><stop stop-opacity="1" stop-color="rgb(45.899963%, 32.899475%, 95.274353%)" offset="0.28125"/><stop stop-opacity="1" stop-color="rgb(45.698547%, 33.099365%, 95.08667%)" offset="0.285156"/><stop stop-opacity="1" stop-color="rgb(45.498657%, 33.299255%, 94.898987%)" offset="0.289062"/><stop stop-opacity="1" stop-color="rgb(45.304871%, 33.493042%, 94.898987%)" offset="0.296875"/><stop stop-opacity="1" stop-color="rgb(44.90509%, 33.877563%, 94.898987%)" offset="0.300781"/><stop stop-opacity="1" stop-color="rgb(44.699097%, 34.068298%, 94.898987%)" offset="0.304687"/><stop stop-opacity="1" stop-color="rgb(44.499207%, 34.259033%, 94.699097%)" offset="0.308594"/><stop stop-opacity="1" stop-color="rgb(44.299316%, 34.449768%, 94.499207%)" offset="0.3125"/><stop stop-opacity="1" stop-color="rgb(44.082642%, 34.674072%, 94.499207%)" offset="0.316406"/><stop stop-opacity="1" stop-color="rgb(43.867493%, 34.899902%, 94.499207%)" offset="0.320312"/><stop stop-opacity="1" stop-color="rgb(43.482971%, 35.099792%, 94.493103%)" offset="0.324219"/><stop stop-opacity="1" stop-color="rgb(43.099976%, 35.299683%, 94.487%)" offset="0.328125"/><stop stop-opacity="1" stop-color="rgb(42.901611%, 35.496521%, 94.293213%)" offset="0.332031"/><stop stop-opacity="1" stop-color="rgb(42.704773%, 35.693359%, 94.099426%)" offset="0.335937"/><stop stop-opacity="1" stop-color="rgb(42.56134%, 35.884094%, 94.099426%)" offset="0.34375"/><stop stop-opacity="1" stop-color="rgb(42.230225%, 36.264038%, 94.099426%)" offset="0.351562"/><stop stop-opacity="1" stop-color="rgb(41.801453%, 36.676025%, 93.899536%)" offset="0.355469"/><stop stop-opacity="1" stop-color="rgb(41.56189%, 36.898804%, 93.699646%)" offset="0.359375"/><stop stop-opacity="1" stop-color="rgb(41.371155%, 37.098694%, 93.699646%)" offset="0.363281"/><stop stop-opacity="1" stop-color="rgb(41.18042%, 37.298584%, 93.699646%)" offset="0.367188"/><stop stop-opacity="1" stop-color="rgb(40.789795%, 37.44812%, 93.499756%)" offset="0.371094"/><stop stop-opacity="1" stop-color="rgb(40.39917%, 37.599182%, 93.299866%)" offset="0.375"/><stop stop-opacity="1" stop-color="rgb(40.208435%, 37.789917%, 93.299866%)" offset="0.382812"/><stop stop-opacity="1" stop-color="rgb(39.826965%, 38.171387%, 93.299866%)" offset="0.390625"/><stop stop-opacity="1" stop-color="rgb(39.395142%, 38.580322%, 93.09845%)" offset="0.394531"/><stop stop-opacity="1" stop-color="rgb(39.155579%, 38.798523%, 92.89856%)" offset="0.398437"/><stop stop-opacity="1" stop-color="rgb(38.964844%, 38.998413%, 92.89856%)" offset="0.402344"/><stop stop-opacity="1" stop-color="rgb(38.774109%, 39.199829%, 92.89856%)" offset="0.40625"/><stop stop-opacity="1" stop-color="rgb(38.583374%, 39.399719%, 92.89856%)" offset="0.410156"/><stop stop-opacity="1" stop-color="rgb(38.392639%, 39.599609%, 92.89856%)" offset="0.414062"/><stop stop-opacity="1" stop-color="rgb(38.195801%, 39.793396%, 92.704773%)" offset="0.417969"/><stop stop-opacity="1" stop-color="rgb(37.998962%, 39.987183%, 92.510986%)" offset="0.421875"/><stop stop-opacity="1" stop-color="rgb(37.660217%, 40.177917%, 92.504883%)" offset="0.425781"/><stop stop-opacity="1" stop-color="rgb(37.322998%, 40.368652%, 92.498779%)" offset="0.429687"/><stop stop-opacity="1" stop-color="rgb(37.135315%, 40.557861%, 92.498779%)" offset="0.4375"/><stop stop-opacity="1" stop-color="rgb(36.723328%, 40.9729%, 92.349243%)" offset="0.441406"/><stop stop-opacity="1" stop-color="rgb(36.499023%, 41.19873%, 92.199707%)" offset="0.445312"/><stop stop-opacity="1" stop-color="rgb(36.29303%, 41.398621%, 92.199707%)" offset="0.449219"/><stop stop-opacity="1" stop-color="rgb(36.087036%, 41.598511%, 92.199707%)" offset="0.453125"/><stop stop-opacity="1" stop-color="rgb(35.89325%, 41.795349%, 92.199707%)" offset="0.457031"/><stop stop-opacity="1" stop-color="rgb(35.699463%, 41.993713%, 92.199707%)" offset="0.460938"/><stop stop-opacity="1" stop-color="rgb(35.499573%, 42.182922%, 92.012024%)" offset="0.464844"/><stop stop-opacity="1" stop-color="rgb(35.299683%, 42.373657%, 91.824341%)" offset="0.46875"/><stop stop-opacity="1" stop-color="rgb(34.921265%, 42.520142%, 91.812134%)" offset="0.472656"/><stop stop-opacity="1" stop-color="rgb(34.542847%, 42.666626%, 91.799927%)" offset="0.476562"/><stop stop-opacity="1" stop-color="rgb(34.320068%, 42.883301%, 91.799927%)" offset="0.480469"/><stop stop-opacity="1" stop-color="rgb(34.098816%, 43.099976%, 91.799927%)" offset="0.484375"/><stop stop-opacity="1" stop-color="rgb(33.898926%, 43.299866%, 91.598511%)" offset="0.488281"/><stop stop-opacity="1" stop-color="rgb(33.699036%, 43.499756%, 91.398621%)" offset="0.492187"/><stop stop-opacity="1" stop-color="rgb(33.499146%, 43.699646%, 91.398621%)" offset="0.496094"/><stop stop-opacity="1" stop-color="rgb(33.299255%, 43.899536%, 91.398621%)" offset="0.5"/><stop stop-opacity="1" stop-color="rgb(33.099365%, 44.099426%, 91.398621%)" offset="0.503906"/><stop stop-opacity="1" stop-color="rgb(32.899475%, 44.299316%, 91.398621%)" offset="0.507812"/><stop stop-opacity="1" stop-color="rgb(32.699585%, 44.499207%, 91.19873%)" offset="0.511719"/><stop stop-opacity="1" stop-color="rgb(32.499695%, 44.699097%, 90.99884%)" offset="0.515625"/><stop stop-opacity="1" stop-color="rgb(32.327271%, 44.920349%, 90.99884%)" offset="0.519531"/><stop stop-opacity="1" stop-color="rgb(32.154846%, 45.143127%, 90.99884%)" offset="0.523438"/><stop stop-opacity="1" stop-color="rgb(31.776428%, 45.333862%, 90.986633%)" offset="0.527344"/><stop stop-opacity="1" stop-color="rgb(31.399536%, 45.524597%, 90.974426%)" offset="0.53125"/><stop stop-opacity="1" stop-color="rgb(31.199646%, 45.715332%, 90.786743%)" offset="0.535156"/><stop stop-opacity="1" stop-color="rgb(30.999756%, 45.906067%, 90.59906%)" offset="0.539062"/><stop stop-opacity="1" stop-color="rgb(30.805969%, 46.102905%, 90.59906%)" offset="0.542969"/><stop stop-opacity="1" stop-color="rgb(30.612183%, 46.299744%, 90.59906%)" offset="0.546875"/><stop stop-opacity="1" stop-color="rgb(30.404663%, 46.499634%, 90.59906%)" offset="0.550781"/><stop stop-opacity="1" stop-color="rgb(30.198669%, 46.699524%, 90.59906%)" offset="0.554688"/><stop stop-opacity="1" stop-color="rgb(29.998779%, 46.899414%, 90.39917%)" offset="0.558594"/><stop stop-opacity="1" stop-color="rgb(29.798889%, 47.099304%, 90.19928%)" offset="0.5625"/><stop stop-opacity="1" stop-color="rgb(29.58374%, 47.309875%, 90.19928%)" offset="0.566406"/><stop stop-opacity="1" stop-color="rgb(29.368591%, 47.521973%, 90.19928%)" offset="0.570312"/><stop stop-opacity="1" stop-color="rgb(28.98407%, 47.666931%, 90.193176%)" offset="0.574219"/><stop stop-opacity="1" stop-color="rgb(28.599548%, 47.81189%, 90.187073%)" offset="0.578125"/><stop stop-opacity="1" stop-color="rgb(28.40271%, 48.005676%, 89.993286%)" offset="0.582031"/><stop stop-opacity="1" stop-color="rgb(28.205872%, 48.199463%, 89.7995%)" offset="0.585938"/><stop stop-opacity="1" stop-color="rgb(28.015137%, 48.399353%, 89.7995%)" offset="0.589844"/><stop stop-opacity="1" stop-color="rgb(27.824402%, 48.599243%, 89.7995%)" offset="0.59375"/><stop stop-opacity="1" stop-color="rgb(27.677917%, 48.799133%, 89.7995%)" offset="0.597656"/><stop stop-opacity="1" stop-color="rgb(27.531433%, 48.999023%, 89.7995%)" offset="0.601562"/><stop stop-opacity="1" stop-color="rgb(27.296448%, 49.217224%, 89.599609%)" offset="0.605469"/><stop stop-opacity="1" stop-color="rgb(27.061462%, 49.436951%, 89.399719%)" offset="0.609375"/><stop stop-opacity="1" stop-color="rgb(26.870728%, 49.627686%, 89.399719%)" offset="0.617188"/><stop stop-opacity="1" stop-color="rgb(26.289368%, 50.009155%, 89.199829%)" offset="0.621094"/><stop stop-opacity="1" stop-color="rgb(25.898743%, 50.19989%, 88.999939%)" offset="0.625"/><stop stop-opacity="1" stop-color="rgb(25.708008%, 50.39978%, 88.999939%)" offset="0.628906"/><stop stop-opacity="1" stop-color="rgb(25.517273%, 50.59967%, 88.999939%)" offset="0.632812"/><stop stop-opacity="1" stop-color="rgb(25.326538%, 50.799561%, 88.999939%)" offset="0.636719"/><stop stop-opacity="1" stop-color="rgb(25.137329%, 50.999451%, 88.999939%)" offset="0.640625"/><stop stop-opacity="1" stop-color="rgb(24.89624%, 51.220703%, 88.798523%)" offset="0.644531"/><stop stop-opacity="1" stop-color="rgb(24.655151%, 51.443481%, 88.598633%)" offset="0.648438"/><stop stop-opacity="1" stop-color="rgb(24.464417%, 51.634216%, 88.598633%)" offset="0.65625"/><stop stop-opacity="1" stop-color="rgb(24.082947%, 52.01416%, 88.598633%)" offset="0.664062"/><stop stop-opacity="1" stop-color="rgb(23.695374%, 52.351379%, 88.404846%)" offset="0.667969"/><stop stop-opacity="1" stop-color="rgb(23.498535%, 52.49939%, 88.21106%)" offset="0.671875"/><stop stop-opacity="1" stop-color="rgb(23.114014%, 52.69928%, 88.204956%)" offset="0.675781"/><stop stop-opacity="1" stop-color="rgb(22.731018%, 52.89917%, 88.198853%)" offset="0.679688"/><stop stop-opacity="1" stop-color="rgb(22.583008%, 53.09906%, 88.198853%)" offset="0.683594"/><stop stop-opacity="1" stop-color="rgb(22.436523%, 53.29895%, 88.198853%)" offset="0.6875"/><stop stop-opacity="1" stop-color="rgb(22.216797%, 53.514099%, 87.998962%)" offset="0.691406"/><stop stop-opacity="1" stop-color="rgb(21.998596%, 53.730774%, 87.799072%)" offset="0.695312"/><stop stop-opacity="1" stop-color="rgb(21.792603%, 53.921509%, 87.799072%)" offset="0.699219"/><stop stop-opacity="1" stop-color="rgb(21.586609%, 54.112244%, 87.799072%)" offset="0.703125"/><stop stop-opacity="1" stop-color="rgb(21.392822%, 54.30603%, 87.799072%)" offset="0.710938"/><stop stop-opacity="1" stop-color="rgb(20.999146%, 54.699707%, 87.658691%)" offset="0.714844"/><stop stop-opacity="1" stop-color="rgb(20.799255%, 54.899597%, 87.518311%)" offset="0.71875"/><stop stop-opacity="1" stop-color="rgb(20.420837%, 55.099487%, 87.509155%)" offset="0.722656"/><stop stop-opacity="1" stop-color="rgb(20.042419%, 55.299377%, 87.5%)" offset="0.726562"/><stop stop-opacity="1" stop-color="rgb(19.821167%, 55.517578%, 87.5%)" offset="0.730469"/><stop stop-opacity="1" stop-color="rgb(19.599915%, 55.737305%, 87.5%)" offset="0.734375"/><stop stop-opacity="1" stop-color="rgb(19.398499%, 55.926514%, 87.298584%)" offset="0.738281"/><stop stop-opacity="1" stop-color="rgb(19.198608%, 56.117249%, 87.098694%)" offset="0.742188"/><stop stop-opacity="1" stop-color="rgb(18.998718%, 56.307983%, 87.098694%)" offset="0.746094"/><stop stop-opacity="1" stop-color="rgb(18.798828%, 56.498718%, 87.098694%)" offset="0.75"/><stop stop-opacity="1" stop-color="rgb(18.598938%, 56.889343%, 87.098694%)" offset="0.753906"/><stop stop-opacity="1" stop-color="rgb(18.399048%, 57.279968%, 87.098694%)" offset="0.757812"/><stop stop-opacity="1" stop-color="rgb(18.199158%, 57.424927%, 86.898804%)" offset="0.761719"/><stop stop-opacity="1" stop-color="rgb(17.999268%, 57.571411%, 86.698914%)" offset="0.765625"/><stop stop-opacity="1" stop-color="rgb(17.782593%, 57.785034%, 86.698914%)" offset="0.769531"/><stop stop-opacity="1" stop-color="rgb(17.565918%, 57.998657%, 86.698914%)" offset="0.773438"/><stop stop-opacity="1" stop-color="rgb(17.23175%, 58.198547%, 86.686707%)" offset="0.777344"/><stop stop-opacity="1" stop-color="rgb(16.899109%, 58.399963%, 86.6745%)" offset="0.78125"/><stop stop-opacity="1" stop-color="rgb(16.699219%, 58.599854%, 86.486816%)" offset="0.785156"/><stop stop-opacity="1" stop-color="rgb(16.499329%, 58.799744%, 86.299133%)" offset="0.789062"/><stop stop-opacity="1" stop-color="rgb(16.305542%, 58.99353%, 86.299133%)" offset="0.796875"/><stop stop-opacity="1" stop-color="rgb(15.905762%, 59.376526%, 86.299133%)" offset="0.800781"/><stop stop-opacity="1" stop-color="rgb(15.699768%, 59.567261%, 86.299133%)" offset="0.804688"/><stop stop-opacity="1" stop-color="rgb(15.499878%, 59.757996%, 86.099243%)" offset="0.808594"/><stop stop-opacity="1" stop-color="rgb(15.299988%, 59.94873%, 85.899353%)" offset="0.8125"/><stop stop-opacity="1" stop-color="rgb(15.083313%, 60.173035%, 85.899353%)" offset="0.816406"/><stop stop-opacity="1" stop-color="rgb(14.868164%, 60.398865%, 85.899353%)" offset="0.820312"/><stop stop-opacity="1" stop-color="rgb(14.483643%, 60.598755%, 85.89325%)" offset="0.824219"/><stop stop-opacity="1" stop-color="rgb(14.099121%, 60.798645%, 85.887146%)" offset="0.828125"/><stop stop-opacity="1" stop-color="rgb(13.902283%, 60.995483%, 85.693359%)" offset="0.832031"/><stop stop-opacity="1" stop-color="rgb(13.705444%, 61.192322%, 85.499573%)" offset="0.835938"/><stop stop-opacity="1" stop-color="rgb(13.514709%, 61.383057%, 85.499573%)" offset="0.84375"/><stop stop-opacity="1" stop-color="rgb(13.13324%, 61.764526%, 85.499573%)" offset="0.851562"/><stop stop-opacity="1" stop-color="rgb(12.705994%, 62.176514%, 85.299683%)" offset="0.855469"/><stop stop-opacity="1" stop-color="rgb(12.471008%, 62.399292%, 85.099792%)" offset="0.859375"/><stop stop-opacity="1" stop-color="rgb(12.32605%, 62.548828%, 85.099792%)" offset="0.867188"/><stop stop-opacity="1" stop-color="rgb(11.790466%, 62.89978%, 84.898376%)" offset="0.871094"/><stop stop-opacity="1" stop-color="rgb(11.399841%, 63.09967%, 84.698486%)" offset="0.875"/><stop stop-opacity="1" stop-color="rgb(11.209106%, 63.290405%, 84.698486%)" offset="0.882812"/><stop stop-opacity="1" stop-color="rgb(10.827637%, 63.670349%, 84.698486%)" offset="0.890625"/><stop stop-opacity="1" stop-color="rgb(10.395813%, 64.079285%, 84.498596%)" offset="0.894531"/><stop stop-opacity="1" stop-color="rgb(10.15625%, 64.299011%, 84.298706%)" offset="0.898438"/><stop stop-opacity="1" stop-color="rgb(9.965515%, 64.498901%, 84.298706%)" offset="0.902344"/><stop stop-opacity="1" stop-color="rgb(9.77478%, 64.698792%, 84.298706%)" offset="0.90625"/><stop stop-opacity="1" stop-color="rgb(9.584045%, 64.898682%, 84.298706%)" offset="0.910156"/><stop stop-opacity="1" stop-color="rgb(9.393311%, 65.098572%, 84.298706%)" offset="0.914062"/><stop stop-opacity="1" stop-color="rgb(9.196472%, 65.292358%, 84.104919%)" offset="0.917969"/><stop stop-opacity="1" stop-color="rgb(8.999634%, 65.486145%, 83.911133%)" offset="0.921875"/><stop stop-opacity="1" stop-color="rgb(8.615112%, 65.67688%, 83.905029%)" offset="0.925781"/><stop stop-opacity="1" stop-color="rgb(8.230591%, 65.867615%, 83.898926%)" offset="0.929688"/><stop stop-opacity="1" stop-color="rgb(8.039856%, 66.05835%, 83.898926%)" offset="0.9375"/><stop stop-opacity="1" stop-color="rgb(7.673645%, 66.473389%, 83.699036%)" offset="0.941406"/><stop stop-opacity="1" stop-color="rgb(7.499695%, 66.699219%, 83.499146%)" offset="0.945312"/><stop stop-opacity="1" stop-color="rgb(7.292175%, 66.899109%, 83.499146%)" offset="0.949219"/><stop stop-opacity="1" stop-color="rgb(7.086182%, 67.098999%, 83.499146%)" offset="0.953125"/><stop stop-opacity="1" stop-color="rgb(6.892395%, 67.295837%, 83.499146%)" offset="0.957031"/><stop stop-opacity="1" stop-color="rgb(6.698608%, 67.492676%, 83.499146%)" offset="0.960938"/><stop stop-opacity="1" stop-color="rgb(6.498718%, 67.636108%, 83.311462%)" offset="0.964844"/><stop stop-opacity="1" stop-color="rgb(6.298828%, 67.781067%, 83.123779%)" offset="0.96875"/><stop stop-opacity="1" stop-color="rgb(5.92041%, 67.967224%, 83.111572%)" offset="0.972656"/><stop stop-opacity="1" stop-color="rgb(5.543518%, 68.154907%, 83.099365%)" offset="0.976562"/><stop stop-opacity="1" stop-color="rgb(5.32074%, 68.37616%, 83.099365%)" offset="0.980469"/><stop stop-opacity="1" stop-color="rgb(5.099487%, 68.598938%, 83.099365%)" offset="0.984375"/><stop stop-opacity="1" stop-color="rgb(4.899597%, 68.798828%, 82.899475%)" offset="0.988281"/><stop stop-opacity="1" stop-color="rgb(4.699707%, 68.998718%, 82.699585%)" offset="0.992188"/><stop stop-opacity="1" stop-color="rgb(4.499817%, 69.198608%, 82.699585%)" offset="0.996094"/><stop stop-opacity="1" stop-color="rgb(4.299927%, 69.398499%, 82.699585%)" offset="1"/></linearGradient></defs><g clip-path="url(#id1)"><g clip-path="url(#id2)"><rect x="-76.8" fill="url(#id3)" width="921.6" y="-76.799999" height="921.599993"/></g></g></svg>