<svg xmlns="http://www.w3.org/2000/svg" xmlns:xlink="http://www.w3.org/1999/xlink" width="1024" zoomAndPan="magnify" viewBox="0 0 768 767.999994" height="1024" preserveAspectRatio="xMidYMid meet" version="1.0"><defs><clipPath id="id1"><path d="M 42.667969 76.800781 L 739.417969 76.800781 L 739.417969 703.800781 L 42.667969 703.800781 Z M 42.667969 76.800781 " clip-rule="nonzero"/></clipPath><clipPath id="id2"><path d="M 643.613281 152.273438 L 576.839844 152.273438 C 573.632812 152.273438 571.035156 154.867188 571.035156 158.078125 C 571.035156 161.285156 573.632812 163.882812 576.839844 163.882812 L 643.613281 163.882812 C 646.824219 163.882812 649.417969 161.285156 649.417969 158.078125 C 649.417969 154.867188 646.824219 152.273438 643.613281 152.273438 Z M 666.839844 129.050781 L 632 129.050781 C 628.792969 129.050781 626.195312 131.648438 626.195312 134.855469 C 626.195312 138.066406 628.792969 140.660156 632 140.660156 L 666.839844 140.660156 C 670.046875 140.660156 672.644531 138.066406 672.644531 134.855469 C 672.644531 131.648438 670.046875 129.050781 666.839844 129.050781 Z M 608.777344 140.660156 C 611.984375 140.660156 614.582031 138.066406 614.582031 134.855469 C 614.582031 131.648438 611.984375 129.050781 608.777344 129.050781 L 573.9375 129.050781 C 570.730469 129.050781 568.132812 131.648438 568.132812 134.855469 C 568.132812 138.066406 570.730469 140.660156 573.9375 140.660156 Z M 666.839844 105.828125 L 643.613281 105.828125 C 640.402344 105.828125 637.808594 108.425781 637.808594 111.632812 C 637.808594 114.84375 640.402344 117.4375 643.613281 117.4375 L 666.839844 117.4375 C 670.046875 117.4375 672.644531 114.84375 672.644531 111.632812 C 672.644531 108.425781 670.046875 105.828125 666.839844 105.828125 Z M 597.164062 117.4375 L 620.386719 117.4375 C 623.597656 117.4375 626.195312 114.84375 626.195312 111.632812 C 626.195312 108.425781 623.597656 105.828125 620.386719 105.828125 L 597.164062 105.828125 C 593.953125 105.828125 591.355469 108.425781 591.355469 111.632812 C 591.355469 114.84375 593.953125 117.4375 597.164062 117.4375 Z M 525.726562 553.75 C 526.6875 555.238281 527.648438 556.738281 528.59375 558.253906 L 528.847656 558.636719 C 529.09375 559.007812 529.480469 559.585938 529.976562 560.34375 C 530.222656 560.140625 530.453125 559.929688 530.691406 559.734375 L 526.253906 554.410156 C 526.070312 554.195312 525.894531 553.972656 525.726562 553.75 Z M 65.890625 674.773438 C 62.6875 674.773438 60.085938 677.375 60.085938 680.578125 C 60.085938 683.78125 62.6875 686.382812 65.890625 686.382812 L 716.191406 686.382812 C 719.394531 686.382812 721.996094 683.78125 721.996094 680.578125 C 721.996094 677.375 719.394531 674.773438 716.191406 674.773438 Z M 100.730469 663.160156 L 212.074219 663.160156 C 211.429688 661.339844 211.046875 659.398438 211.046875 657.355469 C 211.046875 655.316406 211.433594 653.371094 212.085938 651.550781 L 100.730469 651.550781 C 97.527344 651.550781 94.921875 654.152344 94.921875 657.355469 C 94.921875 660.558594 97.527344 663.160156 100.730469 663.160156 Z M 171.050781 547.050781 L 70.609375 547.050781 C 68.257812 547.050781 67.007812 548.574219 66.570312 549.242188 C 66.152344 549.894531 65.25 551.652344 66.210938 553.796875 L 103.242188 637.082031 C 104.011719 638.820312 105.722656 639.9375 107.625 639.9375 L 207.917969 639.9375 L 171.730469 558.519531 C 170.09375 554.839844 169.898438 550.785156 171.050781 547.050781 Z M 228.371094 605.105469 L 238.757812 628.476562 C 238.960938 628.929688 239.117188 629.394531 239.273438 629.859375 C 241.015625 626.089844 243.808594 622.195312 247.585938 618.417969 C 249.855469 616.148438 253.527344 616.148438 255.796875 618.417969 C 258.066406 620.683594 258.066406 624.359375 255.796875 626.625 C 249.378906 633.042969 248.375 637.988281 248.894531 639.257812 C 249.015625 639.542969 249.960938 639.9375 251.691406 639.9375 L 269.070312 639.9375 C 268.742188 617.617188 265.625 605.105469 240.078125 605.105469 L 235.757812 605.105469 C 235.753906 605.105469 235.746094 605.105469 235.734375 605.105469 C 235.734375 605.105469 235.730469 605.105469 235.71875 605.105469 Z M 228.464844 663.160156 L 309.753906 663.160156 C 312.957031 663.160156 315.558594 660.558594 315.558594 657.355469 C 315.558594 654.152344 312.957031 651.550781 309.753906 651.550781 L 228.464844 651.550781 C 225.261719 651.550781 222.660156 654.152344 222.660156 657.355469 C 222.660156 660.558594 225.261719 663.160156 228.464844 663.160156 Z M 457.179688 403.953125 C 456.390625 404.398438 455.589844 404.855469 454.78125 405.324219 C 454.246094 412.121094 452.109375 417.671875 449.058594 422.371094 C 455.25 417.03125 460.449219 410.007812 463.523438 400.226562 C 461.480469 401.496094 459.34375 402.714844 457.179688 403.953125 Z M 378.566406 542.917969 L 385.234375 560.0625 L 391.355469 544.339844 L 385.019531 512.214844 L 384.652344 512.214844 Z M 364.007812 499.183594 L 360.304688 495.960938 L 370.726562 522.75 L 373.902344 506.707031 L 371.644531 499.214844 L 371.089844 499.597656 C 368.910156 501.082031 366.003906 500.910156 364.007812 499.183594 Z M 410.234375 495.785156 L 406.542969 499.113281 C 405.445312 500.101562 404.054688 500.605469 402.652344 500.605469 C 401.554688 500.605469 400.453125 500.292969 399.484375 499.664062 L 398.152344 498.796875 L 395.765625 506.707031 L 399.207031 524.144531 Z M 388.019531 492.191406 L 384.90625 490.167969 L 381.703125 492.355469 L 384.191406 500.605469 L 385.480469 500.605469 Z M 426.394531 486.265625 L 391.046875 577.160156 L 391.0625 583.824219 L 420.074219 550.671875 L 420.074219 529.632812 C 420.074219 527.433594 421.316406 525.425781 423.28125 524.441406 L 442.003906 515.078125 L 433.589844 489.839844 C 431.089844 488.546875 428.691406 487.371094 426.394531 486.265625 Z M 394.777344 482.742188 L 402.082031 487.496094 L 411.503906 479.011719 C 409.03125 477.671875 406.800781 476.289062 404.847656 474.796875 Z M 358.6875 479.167969 L 368.246094 487.480469 L 374.746094 483.042969 L 364.511719 475.625 C 362.757812 476.863281 360.800781 478.03125 358.6875 479.167969 Z M 350.398438 529.632812 L 350.398438 550.671875 L 379.453125 583.875 L 379.433594 577.175781 L 344.074219 486.265625 C 341.777344 487.371094 339.378906 488.546875 336.878906 489.839844 L 328.464844 515.078125 L 347.1875 524.441406 C 349.15625 525.425781 350.398438 527.433594 350.398438 529.632812 Z M 559.214844 559.347656 L 543.273438 540.230469 C 542.695312 539.527344 541.953125 539.394531 541.5625 539.378906 C 541.175781 539.355469 540.421875 539.425781 539.777344 540.070312 C 538.902344 540.945312 538.839844 542.316406 539.632812 543.261719 L 552.472656 558.667969 C 552.851562 558.667969 553.214844 558.660156 553.617188 558.660156 C 555.648438 558.660156 557.5 558.917969 559.214844 559.347656 Z M 526.335938 589.621094 C 535.847656 607.175781 544.980469 614.726562 558.957031 616.347656 L 564.367188 591.085938 L 564.136719 590.800781 C 561.316406 592.472656 557.816406 593.496094 553.617188 593.496094 C 548.9375 593.496094 547.878906 596.6875 547.808594 599.367188 C 547.808594 602.578125 545.214844 605.140625 542.003906 605.140625 C 538.792969 605.140625 536.199219 602.507812 536.199219 599.300781 C 536.199219 592.296875 540.835938 581.882812 553.617188 581.882812 C 558.96875 581.882812 560.875 578.882812 560.875 576.078125 C 560.875 573.269531 558.96875 570.273438 553.617188 570.273438 C 548.160156 570.273438 546.195312 570.3125 544.601562 571.109375 C 542.542969 572.144531 539.683594 574.996094 534.496094 580.183594 C 532.183594 582.496094 529.359375 585.816406 526.335938 589.621094 Z M 593.148438 512.214844 L 560.800781 663.160156 L 665.046875 663.160156 L 697.394531 512.214844 Z M 640.710938 494.800781 L 640.710938 500.605469 L 652.324219 500.605469 L 652.324219 494.800781 C 652.324219 491.597656 649.71875 488.996094 646.515625 488.996094 C 643.3125 488.996094 640.710938 491.597656 640.710938 494.800781 Z M 443.078125 481.585938 L 443.140625 481.765625 C 449.585938 485.269531 456.679688 489.550781 464.128906 494.964844 C 466.726562 496.851562 467.300781 500.480469 465.410156 503.078125 C 464.277344 504.636719 462.507812 505.46875 460.710938 505.46875 C 459.527344 505.46875 458.335938 505.105469 457.304688 504.359375 C 454.367188 502.226562 451.507812 500.292969 448.722656 498.511719 L 454.617188 516.183594 C 455.527344 518.929688 454.285156 521.921875 451.699219 523.214844 L 431.683594 533.222656 L 431.683594 552.855469 C 431.683594 554.261719 431.175781 555.621094 430.25 556.675781 L 391.117188 601.398438 L 391.292969 663.160156 L 466.523438 663.160156 L 466.523438 576.078125 C 466.523438 572.867188 469.121094 570.273438 472.328125 570.273438 C 475.539062 570.273438 478.136719 572.867188 478.136719 576.078125 L 478.136719 663.160156 L 548.921875 663.160156 L 556.519531 627.722656 C 538.515625 625.238281 527.660156 614.863281 518.671875 599.679688 C 509.351562 612.324219 500.527344 625.527344 500.386719 625.742188 C 499.269531 627.421875 497.425781 628.328125 495.546875 628.328125 C 494.441406 628.328125 493.324219 628.011719 492.332031 627.351562 C 489.664062 625.574219 488.941406 621.964844 490.722656 619.300781 C 491.550781 618.058594 508.464844 592.742188 520.746094 578.117188 C 516.730469 571.867188 513.980469 567.738281 513.949219 567.6875 C 513.914062 567.640625 513.886719 567.589844 513.859375 567.546875 C 502.824219 549.894531 490.824219 534.621094 478.191406 522.15625 C 475.914062 519.898438 475.890625 516.226562 478.140625 513.941406 C 480.390625 511.660156 484.070312 511.636719 486.351562 513.890625 C 489.90625 517.398438 493.40625 521.128906 496.851562 525.046875 C 571.421875 466.488281 591.636719 369.808594 594.011719 338.050781 L 536.089844 338.050781 C 533.839844 397.15625 497.449219 453.003906 443.078125 481.585938 Z M 608.730469 312.972656 L 632.285156 259.90625 L 536.765625 217.503906 L 513.207031 270.570312 L 516.789062 272.160156 C 518.761719 267.613281 521.734375 263.027344 526.285156 258.472656 C 533.539062 251.222656 541.625 251.765625 546.640625 255.546875 C 547.292969 251.035156 549.1875 246.765625 550.921875 242.847656 C 552.226562 239.917969 555.652344 238.597656 558.589844 239.898438 C 561.515625 241.199219 562.84375 244.628906 561.539062 247.558594 C 559.480469 252.191406 557.539062 256.566406 558.128906 259.992188 C 558.757812 263.660156 562.886719 267.214844 570.390625 270.542969 C 577.894531 273.878906 583.300781 274.558594 586.445312 272.5625 C 589.378906 270.703125 591.324219 266.324219 593.382812 261.691406 C 594.679688 258.761719 598.109375 257.441406 601.042969 258.746094 C 603.972656 260.042969 605.292969 263.472656 603.992188 266.40625 C 601.449219 272.132812 598.570312 278.621094 592.660156 282.371094 C 589.589844 284.316406 586.078125 285.289062 582.074219 285.289062 C 577.324219 285.289062 571.886719 283.910156 565.675781 281.15625 C 560.300781 278.769531 556.09375 276.117188 552.988281 273.15625 C 552.546875 277.226562 551.144531 281.667969 548.535156 286.253906 Z M 582.648438 326.4375 L 582.648438 314.097656 L 547.527344 298.511719 C 547.800781 298.941406 548.09375 299.394531 548.40625 299.871094 C 551.003906 303.816406 554.921875 309.78125 550.996094 319.234375 C 549.765625 322.191406 546.371094 323.597656 543.40625 322.367188 C 540.445312 321.136719 539.039062 317.734375 540.269531 314.777344 C 541.835938 311.011719 540.984375 309.714844 538.703125 306.25 C 535.785156 301.8125 531.371094 295.105469 536.71875 283.390625 C 536.851562 283.105469 537.003906 282.828125 537.179688 282.574219 C 543.011719 273.855469 542.140625 266.839844 539.714844 264.851562 C 537.988281 263.433594 535.285156 265.894531 534.496094 266.683594 C 524.585938 276.59375 524.585938 286.242188 524.585938 297.410156 C 524.585938 313.035156 530.414062 322.753906 533.125 326.4375 Z M 327.171875 390.300781 C 327.171875 422.402344 341.988281 430.410156 355.066406 437.476562 C 364.1875 442.410156 373.621094 447.511719 373.621094 459.964844 C 373.621094 462.570312 373.117188 464.835938 372.226562 466.878906 L 384.683594 475.910156 L 397.75 465.601562 C 397.175781 463.894531 396.847656 462.042969 396.847656 459.964844 C 396.847656 446.273438 408.285156 439.273438 419.339844 432.503906 C 431.664062 424.964844 443.296875 417.835938 443.296875 401.910156 C 443.296875 399.863281 444.375 397.964844 446.136719 396.921875 C 447.953125 395.84375 449.726562 394.828125 451.433594 393.859375 C 461.625 388.066406 466.523438 385 466.523438 378.6875 C 466.523438 370.746094 465.511719 361.273438 460.714844 361.273438 C 456.039062 361.273438 454.976562 364.464844 454.910156 367.144531 C 454.910156 370.355469 452.3125 372.882812 449.105469 372.882812 C 430.828125 372.882812 429.214844 359.140625 428.148438 350.046875 C 427.359375 343.339844 426.703125 339.144531 423.28125 337.4375 C 411.5625 331.582031 395.054688 336.542969 377.582031 341.796875 C 365.894531 345.316406 353.84375 348.929688 342.234375 349.558594 C 342.527344 349.65625 342.824219 349.734375 343.113281 349.855469 L 354.082031 354.558594 C 355.371094 355.109375 356.203125 356.375 356.203125 357.773438 C 356.203125 359.707031 354.640625 361.273438 352.707031 361.273438 L 331.277344 361.273438 C 329.011719 361.273438 327.171875 359.433594 327.171875 357.167969 C 327.171875 356.078125 327.605469 355.035156 328.375 354.265625 L 330.324219 352.3125 C 331.628906 351.011719 333.207031 350.074219 334.890625 349.515625 C 332.269531 349.34375 329.691406 349.003906 327.171875 348.492188 Z M 338.785156 245.160156 C 313.171875 245.160156 292.335938 265.996094 292.335938 291.605469 C 292.335938 317.214844 313.171875 338.050781 338.785156 338.050781 C 349.734375 338.050781 362.191406 334.300781 374.234375 330.679688 C 393.109375 325.003906 412.632812 319.132812 428.476562 327.050781 C 437.679688 331.65625 438.789062 341.101562 439.679688 348.691406 C 440.570312 356.253906 441.3125 359.480469 444.476562 360.671875 C 446.546875 355.042969 451.53125 349.660156 460.714844 349.660156 C 462.847656 349.660156 464.78125 349.996094 466.523438 350.660156 L 466.523438 332.246094 C 466.523438 294.644531 465.21875 291.605469 449.105469 291.605469 C 446.605469 291.605469 444.386719 290.007812 443.59375 287.636719 C 436.378906 265.996094 418.132812 257.71875 389.316406 262.953125 C 393.089844 269.609375 395.605469 277.113281 396.496094 285.164062 C 396.847656 288.351562 394.546875 291.21875 391.359375 291.570312 C 388.171875 291.917969 385.304688 289.625 384.953125 286.433594 C 382.347656 262.90625 362.503906 245.160156 338.785156 245.160156 Z M 211.046875 430.9375 L 211.046875 378.6875 C 211.046875 364.964844 211.046875 364.964844 208.582031 361.265625 C 206.789062 358.578125 204.078125 354.515625 200.046875 346.453125 C 199.785156 345.929688 199.566406 345.414062 199.332031 344.898438 C 198.839844 347.601562 196.480469 349.660156 193.628906 349.660156 L 170.402344 349.660156 C 167.195312 349.660156 164.597656 347.066406 164.597656 343.855469 C 164.597656 340.648438 167.195312 338.050781 170.402344 338.050781 L 193.628906 338.050781 C 195.042969 338.050781 196.324219 338.578125 197.332031 339.417969 C 196.230469 335.386719 195.976562 331.5 196.621094 327.941406 C 197.648438 322.324219 200.898438 317.765625 205.546875 315.441406 C 207.277344 314.578125 209.132812 314.050781 211.046875 313.863281 L 211.046875 245.160156 L 83.308594 245.160156 L 83.308594 430.9375 Z M 222.660156 378.6875 L 222.660156 412.449219 C 228.25 408.242188 234.273438 401.183594 234.273438 390.300781 C 234.273438 356.839844 234.273438 356.839844 223.273438 334.839844 C 221.179688 330.652344 218.492188 327.578125 215.707031 326.1875 C 215.46875 326.070312 215.234375 325.960938 214.996094 325.867188 C 214.890625 325.832031 214.789062 325.796875 214.695312 325.757812 C 213.230469 325.253906 211.851562 325.269531 210.742188 325.828125 C 209.375 326.511719 208.417969 327.996094 208.054688 330.015625 C 207.492188 333.078125 208.34375 337.070312 210.433594 341.257812 C 214.144531 348.675781 216.609375 352.375 218.242188 354.824219 C 222.660156 361.449219 222.660156 362.753906 222.660156 378.6875 Z M 244.148438 593.609375 C 277.617188 595.34375 280.457031 618.753906 280.699219 639.9375 L 292.335938 639.9375 L 292.335938 576.078125 C 292.335938 572.867188 294.933594 570.273438 298.140625 570.273438 C 301.351562 570.273438 303.949219 572.867188 303.949219 576.078125 L 303.949219 639.9375 L 309.753906 639.9375 C 319.359375 639.9375 327.171875 647.75 327.171875 657.355469 C 327.171875 659.390625 326.804688 661.339844 326.15625 663.160156 L 379.679688 663.160156 L 379.503906 601.566406 L 340.21875 556.675781 C 339.296875 555.621094 338.785156 554.261719 338.785156 552.855469 L 338.785156 533.222656 L 318.769531 523.214844 C 316.183594 521.921875 314.941406 518.929688 315.855469 516.183594 L 321.753906 498.511719 C 318.960938 500.292969 316.105469 502.222656 313.167969 504.359375 C 312.136719 505.105469 310.9375 505.46875 309.761719 505.46875 C 307.960938 505.46875 306.191406 504.636719 305.058594 503.078125 C 303.171875 500.480469 303.742188 496.851562 306.339844 494.964844 C 310.542969 491.914062 314.628906 489.226562 318.554688 486.828125 C 287.292969 481.359375 268.351562 466.46875 257.417969 453.558594 C 248.039062 442.46875 241.128906 428.652344 237.402344 414.1875 C 233.242188 419.355469 227.996094 423.351562 222.660156 426.125 L 222.660156 436.746094 C 222.660156 439.953125 220.0625 442.550781 216.855469 442.550781 L 191.894531 442.550781 C 197.820312 465.539062 216.339844 514.496094 268.402344 531.148438 C 272.964844 525.601562 277.636719 520.414062 282.402344 515.605469 C 284.65625 513.328125 288.339844 513.304688 290.613281 515.5625 C 292.890625 517.816406 292.914062 521.492188 290.65625 523.769531 C 278.628906 535.914062 267.175781 550.644531 256.613281 567.546875 C 256.589844 567.589844 250.632812 577.550781 244.148438 593.609375 Z M 186.734375 547.050781 C 184.382812 547.050781 183.128906 548.582031 182.703125 549.238281 C 182.277344 549.894531 181.386719 551.652344 182.339844 553.800781 L 219.359375 637.085938 C 220.132812 638.820312 221.855469 639.9375 223.75 639.9375 C 226.101562 639.9375 227.351562 638.414062 227.785156 637.746094 C 228.207031 637.09375 229.105469 635.339844 228.148438 633.191406 L 191.117188 549.90625 C 190.347656 548.167969 188.632812 547.050781 186.734375 547.050781 Z M 678.449219 94.214844 L 562.324219 94.214844 C 559.121094 94.214844 556.519531 96.824219 556.519531 100.023438 L 556.519531 169.6875 C 556.519531 172.890625 559.121094 175.496094 562.324219 175.496094 L 573.9375 175.496094 C 577.148438 175.496094 579.746094 178.089844 579.746094 181.300781 L 579.746094 202.117188 L 604.671875 177.195312 C 605.757812 176.105469 607.234375 175.496094 608.777344 175.496094 L 678.449219 175.496094 C 681.65625 175.496094 684.257812 172.890625 684.257812 169.6875 L 684.257812 100.023438 C 684.257812 96.824219 681.65625 94.214844 678.449219 94.214844 Z M 739.417969 680.578125 C 739.417969 693.378906 728.996094 703.800781 716.191406 703.800781 L 65.890625 703.800781 C 53.082031 703.800781 42.667969 693.378906 42.667969 680.578125 C 42.667969 667.777344 53.082031 657.355469 65.890625 657.355469 L 77.503906 657.355469 C 77.503906 650.519531 80.515625 644.214844 85.425781 639.90625 L 50.296875 560.878906 C 47.238281 553.964844 47.859375 546.074219 51.964844 539.753906 C 56.089844 533.414062 63.054688 529.632812 70.609375 529.632812 L 186.734375 529.632812 C 195.496094 529.632812 203.460938 534.808594 207.039062 542.820312 L 226.988281 587.6875 L 227.722656 587.6875 C 234.878906 569.8125 241.472656 558.933594 241.773438 558.433594 C 245.027344 553.230469 248.351562 548.234375 251.714844 543.476562 C 222.316406 530.722656 204.199219 509.011719 193.878906 492.148438 C 184.195312 476.289062 178.609375 460.472656 175.417969 448.355469 L 77.503906 448.355469 C 71.101562 448.355469 65.890625 443.144531 65.890625 436.746094 L 65.890625 239.355469 C 65.890625 232.953125 71.101562 227.746094 77.503906 227.746094 L 216.855469 227.746094 C 223.253906 227.746094 228.464844 232.953125 228.464844 239.355469 L 228.464844 313.800781 C 232.550781 317.039062 236.085938 321.535156 238.847656 327.050781 C 251.335938 352.007812 251.691406 353.78125 251.691406 390.300781 C 251.691406 408.792969 258.808594 428.234375 270.722656 442.304688 C 285.503906 459.78125 307.144531 469.519531 335.078125 471.277344 C 337.339844 470.175781 339.484375 469.164062 341.507812 468.210938 C 346.910156 465.652344 354.878906 461.886719 356.199219 460.007812 C 356.171875 458.507812 355.121094 457.300781 346.78125 452.792969 C 339.402344 448.808594 330.230469 443.855469 322.710938 434.316406 C 313.996094 423.257812 309.753906 408.855469 309.753906 390.300781 L 309.753906 348.492188 C 288.40625 337.625 274.917969 315.898438 274.917969 291.605469 C 274.917969 256.390625 303.566406 227.746094 338.785156 227.746094 C 355.761719 227.746094 371.886719 234.429688 383.800781 246.242188 C 406.6875 241.707031 441.546875 241.304688 457.144531 274.660156 C 465.84375 275.800781 475.667969 279.570312 480.375 292.070312 C 483.941406 301.539062 483.941406 314.417969 483.941406 332.246094 L 483.941406 378.6875 C 483.941406 430.679688 449.066406 444.972656 428.222656 453.507812 C 424.054688 455.222656 416.539062 458.3125 414.441406 460.222656 C 416.175781 462.167969 423.753906 465.742188 428.863281 468.160156 C 429.222656 468.335938 429.585938 468.503906 429.957031 468.679688 C 473.734375 447.453125 516.953125 399.207031 518.710938 336.269531 C 514.113281 329.910156 507.167969 317.039062 507.167969 297.410156 C 507.167969 294.042969 507.167969 290.609375 507.425781 287.058594 L 500.832031 284.140625 C 497.992188 282.863281 495.832031 280.585938 494.71875 277.710938 C 493.613281 274.941406 493.664062 271.683594 494.90625 268.855469 L 523.203125 205.140625 C 524.382812 202.386719 526.757812 200.105469 529.671875 198.996094 C 532.46875 197.910156 535.589844 197.972656 538.421875 199.1875 L 562.324219 209.800781 L 562.324219 192.910156 C 549.523438 192.910156 539.101562 182.492188 539.101562 169.6875 L 539.101562 100.023438 C 539.101562 87.21875 549.523438 76.800781 562.324219 76.800781 L 678.449219 76.800781 C 691.253906 76.800781 701.675781 87.21875 701.675781 100.023438 L 701.675781 169.6875 C 701.675781 182.492188 691.253906 192.910156 678.449219 192.910156 L 613.585938 192.910156 L 586.128906 220.363281 L 644.667969 246.347656 C 650.527344 248.953125 653.15625 255.835938 650.554688 261.683594 L 622.292969 325.339844 C 621.011719 328.191406 618.738281 330.351562 615.875 331.46875 C 614.566406 331.976562 613.140625 332.246094 611.679688 332.246094 C 611.679688 351.300781 605.589844 387.976562 588.421875 428.632812 C 575.453125 459.355469 551.914062 501.960938 512.417969 534.855469 C 516.414062 540.078125 520.316406 545.558594 524.082031 551.246094 C 519.890625 543.664062 521.09375 534.125 527.453125 527.757812 C 531.339844 523.875 536.742188 521.746094 542.289062 521.972656 C 547.902344 522.242188 553.105469 524.824219 556.65625 529.070312 L 568.636719 543.445312 L 577.089844 503.980469 C 578.253906 498.648438 583.027344 494.800781 588.453125 494.800781 L 623.292969 494.800781 C 623.292969 482 633.714844 471.578125 646.515625 471.578125 C 659.320312 471.578125 669.742188 482 669.742188 494.800781 L 704.578125 494.800781 C 708.105469 494.800781 711.398438 496.371094 713.617188 499.109375 C 715.800781 501.8125 716.65625 505.328125 715.960938 508.757812 L 684.117188 657.355469 L 716.191406 657.355469 C 728.996094 657.355469 739.417969 667.777344 739.417969 680.578125 Z M 193.628906 407.714844 L 158.792969 407.714844 C 155.582031 407.714844 152.984375 410.3125 152.984375 413.523438 C 152.984375 416.730469 155.582031 419.328125 158.792969 419.328125 L 193.628906 419.328125 C 196.839844 419.328125 199.433594 416.730469 199.433594 413.523438 C 199.433594 410.3125 196.839844 407.714844 193.628906 407.714844 Z M 193.628906 372.882812 L 158.792969 372.882812 C 155.582031 372.882812 152.984375 375.480469 152.984375 378.6875 C 152.984375 381.898438 155.582031 384.496094 158.792969 384.496094 L 193.628906 384.496094 C 196.839844 384.496094 199.433594 381.898438 199.433594 378.6875 C 199.433594 375.480469 196.839844 372.882812 193.628906 372.882812 Z M 135.566406 372.882812 L 100.730469 372.882812 C 97.519531 372.882812 94.921875 375.480469 94.921875 378.6875 C 94.921875 381.898438 97.519531 384.496094 100.730469 384.496094 L 135.566406 384.496094 C 138.777344 384.496094 141.371094 381.898438 141.371094 378.6875 C 141.371094 375.480469 138.777344 372.882812 135.566406 372.882812 Z M 147.179688 338.050781 L 100.730469 338.050781 C 97.519531 338.050781 94.921875 340.648438 94.921875 343.855469 C 94.921875 347.066406 97.519531 349.660156 100.730469 349.660156 L 147.179688 349.660156 C 150.386719 349.660156 152.984375 347.066406 152.984375 343.855469 C 152.984375 340.648438 150.386719 338.050781 147.179688 338.050781 Z M 193.628906 303.214844 L 158.792969 303.214844 C 155.582031 303.214844 152.984375 305.8125 152.984375 309.023438 C 152.984375 312.230469 155.582031 314.828125 158.792969 314.828125 L 193.628906 314.828125 C 196.839844 314.828125 199.433594 312.230469 199.433594 309.023438 C 199.433594 305.8125 196.839844 303.214844 193.628906 303.214844 Z M 100.730469 314.828125 L 135.566406 314.828125 C 138.777344 314.828125 141.371094 312.230469 141.371094 309.023438 C 141.371094 305.8125 138.777344 303.214844 135.566406 303.214844 L 100.730469 303.214844 C 97.519531 303.214844 94.921875 305.8125 94.921875 309.023438 C 94.921875 312.230469 97.519531 314.828125 100.730469 314.828125 Z M 182.015625 279.996094 L 193.628906 279.996094 C 196.839844 279.996094 199.433594 277.398438 199.433594 274.1875 C 199.433594 270.980469 196.839844 268.382812 193.628906 268.382812 L 182.015625 268.382812 C 178.808594 268.382812 176.210938 270.980469 176.210938 274.1875 C 176.210938 277.398438 178.808594 279.996094 182.015625 279.996094 Z M 147.179688 279.996094 L 158.792969 279.996094 C 162 279.996094 164.597656 277.398438 164.597656 274.1875 C 164.597656 270.980469 162 268.382812 158.792969 268.382812 L 147.179688 268.382812 C 143.96875 268.382812 141.371094 270.980469 141.371094 274.1875 C 141.371094 277.398438 143.96875 279.996094 147.179688 279.996094 Z M 152.984375 593.496094 C 152.984375 587.09375 147.773438 581.882812 141.371094 581.882812 C 134.972656 581.882812 129.761719 587.09375 129.761719 593.496094 C 129.761719 599.894531 134.972656 605.105469 141.371094 605.105469 C 147.773438 605.105469 152.984375 599.894531 152.984375 593.496094 Z M 164.597656 593.496094 C 164.597656 606.296875 154.183594 616.714844 141.371094 616.714844 C 128.5625 616.714844 118.148438 606.296875 118.148438 593.496094 C 118.148438 580.691406 128.5625 570.273438 141.371094 570.273438 C 154.183594 570.273438 164.597656 580.691406 164.597656 593.496094 Z M 324.859375 310.171875 C 323.097656 308.851562 321.535156 307.292969 320.214844 305.53125 C 318.289062 302.96875 314.648438 302.457031 312.085938 304.382812 C 309.523438 306.3125 309.003906 309.953125 310.933594 312.515625 C 312.914062 315.140625 315.25 317.476562 317.875 319.453125 C 318.921875 320.242188 320.148438 320.617188 321.359375 320.617188 C 323.125 320.617188 324.863281 319.824219 326.003906 318.304688 C 327.933594 315.742188 327.421875 312.101562 324.859375 310.171875 Z M 331.816406 257.46875 C 315.667969 260.761719 303.949219 275.117188 303.949219 291.605469 C 303.949219 294.816406 306.542969 297.410156 309.753906 297.410156 C 312.964844 297.410156 315.558594 294.816406 315.558594 291.605469 C 315.558594 280.613281 323.375 271.042969 334.140625 268.847656 C 337.28125 268.207031 339.308594 265.144531 338.667969 262 C 338.027344 258.859375 334.957031 256.835938 331.816406 257.46875 Z M 379.429688 430.9375 C 393.328125 430.9375 400.6875 423.648438 406.59375 417.792969 L 406.742188 417.644531 C 409.023438 415.386719 409.03125 411.714844 406.777344 409.433594 C 404.519531 407.160156 400.84375 407.144531 398.566406 409.402344 L 398.417969 409.546875 C 393.121094 414.792969 388.546875 419.328125 379.429688 419.328125 C 376.21875 419.328125 373.621094 421.925781 373.621094 425.132812 C 373.621094 428.34375 376.21875 430.9375 379.429688 430.9375 Z M 382.925781 361.273438 L 404.355469 361.273438 C 406.625 361.273438 408.460938 359.433594 408.460938 357.167969 C 408.460938 356.078125 408.03125 355.035156 407.257812 354.265625 L 405.308594 352.3125 C 401.949219 348.957031 396.886719 347.984375 392.527344 349.855469 L 381.550781 354.558594 C 380.261719 355.109375 379.429688 356.375 379.429688 357.773438 C 379.429688 359.707031 380.992188 361.273438 382.925781 361.273438 Z M 391.042969 372.882812 C 391.042969 376.09375 393.636719 378.6875 396.847656 378.6875 C 400.058594 378.6875 402.652344 376.09375 402.652344 372.882812 C 402.652344 369.675781 400.058594 367.078125 396.847656 367.078125 C 393.636719 367.078125 391.042969 369.675781 391.042969 372.882812 Z M 344.589844 372.882812 C 344.589844 369.675781 341.996094 367.078125 338.785156 367.078125 C 335.574219 367.078125 332.980469 369.675781 332.980469 372.882812 C 332.980469 376.09375 335.574219 378.6875 338.785156 378.6875 C 341.996094 378.6875 344.589844 376.09375 344.589844 372.882812 Z M 348.640625 390.300781 C 348.640625 385.679688 350.449219 381.371094 353.730469 378.167969 C 356.199219 375.757812 360.644531 372.882812 367.816406 372.882812 C 371.027344 372.882812 373.621094 375.480469 373.621094 378.6875 C 373.621094 381.898438 371.027344 384.496094 367.816406 384.496094 C 365.238281 384.496094 363.167969 385.179688 361.847656 386.46875 C 360.820312 387.476562 360.253906 388.832031 360.253906 390.300781 C 360.253906 392.976562 362.230469 396.105469 367.816406 396.105469 C 371.027344 396.105469 373.621094 398.703125 373.621094 401.910156 C 373.621094 405.121094 371.027344 407.714844 367.816406 407.714844 C 355.230469 407.714844 348.640625 398.957031 348.640625 390.300781 Z M 348.640625 390.300781 " clip-rule="nonzero"/></clipPath><clipPath id="id3"><path d="M 643.613281 152.273438 L 576.839844 152.273438 C 573.632812 152.273438 571.035156 154.867188 571.035156 158.078125 C 571.035156 161.285156 573.632812 163.882812 576.839844 163.882812 L 643.613281 163.882812 C 646.824219 163.882812 649.417969 161.285156 649.417969 158.078125 C 649.417969 154.867188 646.824219 152.273438 643.613281 152.273438 Z M 666.839844 129.050781 L 632 129.050781 C 628.792969 129.050781 626.195312 131.648438 626.195312 134.855469 C 626.195312 138.066406 628.792969 140.660156 632 140.660156 L 666.839844 140.660156 C 670.046875 140.660156 672.644531 138.066406 672.644531 134.855469 C 672.644531 131.648438 670.046875 129.050781 666.839844 129.050781 Z M 608.777344 140.660156 C 611.984375 140.660156 614.582031 138.066406 614.582031 134.855469 C 614.582031 131.648438 611.984375 129.050781 608.777344 129.050781 L 573.9375 129.050781 C 570.730469 129.050781 568.132812 131.648438 568.132812 134.855469 C 568.132812 138.066406 570.730469 140.660156 573.9375 140.660156 Z M 666.839844 105.828125 L 643.613281 105.828125 C 640.402344 105.828125 637.808594 108.425781 637.808594 111.632812 C 637.808594 114.84375 640.402344 117.4375 643.613281 117.4375 L 666.839844 117.4375 C 670.046875 117.4375 672.644531 114.84375 672.644531 111.632812 C 672.644531 108.425781 670.046875 105.828125 666.839844 105.828125 Z M 597.164062 117.4375 L 620.386719 117.4375 C 623.597656 117.4375 626.195312 114.84375 626.195312 111.632812 C 626.195312 108.425781 623.597656 105.828125 620.386719 105.828125 L 597.164062 105.828125 C 593.953125 105.828125 591.355469 108.425781 591.355469 111.632812 C 591.355469 114.84375 593.953125 117.4375 597.164062 117.4375 Z M 525.726562 553.75 C 526.6875 555.238281 527.648438 556.738281 528.59375 558.253906 L 528.847656 558.636719 C 529.09375 559.007812 529.480469 559.585938 529.976562 560.34375 C 530.222656 560.140625 530.453125 559.929688 530.691406 559.734375 L 526.253906 554.410156 C 526.070312 554.195312 525.894531 553.972656 525.726562 553.75 Z M 65.890625 674.773438 C 62.6875 674.773438 60.085938 677.375 60.085938 680.578125 C 60.085938 683.78125 62.6875 686.382812 65.890625 686.382812 L 716.191406 686.382812 C 719.394531 686.382812 721.996094 683.78125 721.996094 680.578125 C 721.996094 677.375 719.394531 674.773438 716.191406 674.773438 Z M 100.730469 663.160156 L 212.074219 663.160156 C 211.429688 661.339844 211.046875 659.398438 211.046875 657.355469 C 211.046875 655.316406 211.433594 653.371094 212.085938 651.550781 L 100.730469 651.550781 C 97.527344 651.550781 94.921875 654.152344 94.921875 657.355469 C 94.921875 660.558594 97.527344 663.160156 100.730469 663.160156 Z M 171.050781 547.050781 L 70.609375 547.050781 C 68.257812 547.050781 67.007812 548.574219 66.570312 549.242188 C 66.152344 549.894531 65.25 551.652344 66.210938 553.796875 L 103.242188 637.082031 C 104.011719 638.820312 105.722656 639.9375 107.625 639.9375 L 207.917969 639.9375 L 171.730469 558.519531 C 170.09375 554.839844 169.898438 550.785156 171.050781 547.050781 Z M 228.371094 605.105469 L 238.757812 628.476562 C 238.960938 628.929688 239.117188 629.394531 239.273438 629.859375 C 241.015625 626.089844 243.808594 622.195312 247.585938 618.417969 C 249.855469 616.148438 253.527344 616.148438 255.796875 618.417969 C 258.066406 620.683594 258.066406 624.359375 255.796875 626.625 C 249.378906 633.042969 248.375 637.988281 248.894531 639.257812 C 249.015625 639.542969 249.960938 639.9375 251.691406 639.9375 L 269.070312 639.9375 C 268.742188 617.617188 265.625 605.105469 240.078125 605.105469 L 235.757812 605.105469 C 235.753906 605.105469 235.746094 605.105469 235.734375 605.105469 C 235.734375 605.105469 235.730469 605.105469 235.71875 605.105469 Z M 228.464844 663.160156 L 309.753906 663.160156 C 312.957031 663.160156 315.558594 660.558594 315.558594 657.355469 C 315.558594 654.152344 312.957031 651.550781 309.753906 651.550781 L 228.464844 651.550781 C 225.261719 651.550781 222.660156 654.152344 222.660156 657.355469 C 222.660156 660.558594 225.261719 663.160156 228.464844 663.160156 Z M 457.179688 403.953125 C 456.390625 404.398438 455.589844 404.855469 454.78125 405.324219 C 454.246094 412.121094 452.109375 417.671875 449.058594 422.371094 C 455.25 417.03125 460.449219 410.007812 463.523438 400.226562 C 461.480469 401.496094 459.34375 402.714844 457.179688 403.953125 Z M 378.566406 542.917969 L 385.234375 560.0625 L 391.355469 544.339844 L 385.019531 512.214844 L 384.652344 512.214844 Z M 364.007812 499.183594 L 360.304688 495.960938 L 370.726562 522.75 L 373.902344 506.707031 L 371.644531 499.214844 L 371.089844 499.597656 C 368.910156 501.082031 366.003906 500.910156 364.007812 499.183594 Z M 410.234375 495.785156 L 406.542969 499.113281 C 405.445312 500.101562 404.054688 500.605469 402.652344 500.605469 C 401.554688 500.605469 400.453125 500.292969 399.484375 499.664062 L 398.152344 498.796875 L 395.765625 506.707031 L 399.207031 524.144531 Z M 388.019531 492.191406 L 384.90625 490.167969 L 381.703125 492.355469 L 384.191406 500.605469 L 385.480469 500.605469 Z M 426.394531 486.265625 L 391.046875 577.160156 L 391.0625 583.824219 L 420.074219 550.671875 L 420.074219 529.632812 C 420.074219 527.433594 421.316406 525.425781 423.28125 524.441406 L 442.003906 515.078125 L 433.589844 489.839844 C 431.089844 488.546875 428.691406 487.371094 426.394531 486.265625 Z M 394.777344 482.742188 L 402.082031 487.496094 L 411.503906 479.011719 C 409.03125 477.671875 406.800781 476.289062 404.847656 474.796875 Z M 358.6875 479.167969 L 368.246094 487.480469 L 374.746094 483.042969 L 364.511719 475.625 C 362.757812 476.863281 360.800781 478.03125 358.6875 479.167969 Z M 350.398438 529.632812 L 350.398438 550.671875 L 379.453125 583.875 L 379.433594 577.175781 L 344.074219 486.265625 C 341.777344 487.371094 339.378906 488.546875 336.878906 489.839844 L 328.464844 515.078125 L 347.1875 524.441406 C 349.15625 525.425781 350.398438 527.433594 350.398438 529.632812 Z M 559.214844 559.347656 L 543.273438 540.230469 C 542.695312 539.527344 541.953125 539.394531 541.5625 539.378906 C 541.175781 539.355469 540.421875 539.425781 539.777344 540.070312 C 538.902344 540.945312 538.839844 542.316406 539.632812 543.261719 L 552.472656 558.667969 C 552.851562 558.667969 553.214844 558.660156 553.617188 558.660156 C 555.648438 558.660156 557.5 558.917969 559.214844 559.347656 Z M 526.335938 589.621094 C 535.847656 607.175781 544.980469 614.726562 558.957031 616.347656 L 564.367188 591.085938 L 564.136719 590.800781 C 561.316406 592.472656 557.816406 593.496094 553.617188 593.496094 C 548.9375 593.496094 547.878906 596.6875 547.808594 599.367188 C 547.808594 602.578125 545.214844 605.140625 542.003906 605.140625 C 538.792969 605.140625 536.199219 602.507812 536.199219 599.300781 C 536.199219 592.296875 540.835938 581.882812 553.617188 581.882812 C 558.96875 581.882812 560.875 578.882812 560.875 576.078125 C 560.875 573.269531 558.96875 570.273438 553.617188 570.273438 C 548.160156 570.273438 546.195312 570.3125 544.601562 571.109375 C 542.542969 572.144531 539.683594 574.996094 534.496094 580.183594 C 532.183594 582.496094 529.359375 585.816406 526.335938 589.621094 Z M 593.148438 512.214844 L 560.800781 663.160156 L 665.046875 663.160156 L 697.394531 512.214844 Z M 640.710938 494.800781 L 640.710938 500.605469 L 652.324219 500.605469 L 652.324219 494.800781 C 652.324219 491.597656 649.71875 488.996094 646.515625 488.996094 C 643.3125 488.996094 640.710938 491.597656 640.710938 494.800781 Z M 443.078125 481.585938 L 443.140625 481.765625 C 449.585938 485.269531 456.679688 489.550781 464.128906 494.964844 C 466.726562 496.851562 467.300781 500.480469 465.410156 503.078125 C 464.277344 504.636719 462.507812 505.46875 460.710938 505.46875 C 459.527344 505.46875 458.335938 505.105469 457.304688 504.359375 C 454.367188 502.226562 451.507812 500.292969 448.722656 498.511719 L 454.617188 516.183594 C 455.527344 518.929688 454.285156 521.921875 451.699219 523.214844 L 431.683594 533.222656 L 431.683594 552.855469 C 431.683594 554.261719 431.175781 555.621094 430.25 556.675781 L 391.117188 601.398438 L 391.292969 663.160156 L 466.523438 663.160156 L 466.523438 576.078125 C 466.523438 572.867188 469.121094 570.273438 472.328125 570.273438 C 475.539062 570.273438 478.136719 572.867188 478.136719 576.078125 L 478.136719 663.160156 L 548.921875 663.160156 L 556.519531 627.722656 C 538.515625 625.238281 527.660156 614.863281 518.671875 599.679688 C 509.351562 612.324219 500.527344 625.527344 500.386719 625.742188 C 499.269531 627.421875 497.425781 628.328125 495.546875 628.328125 C 494.441406 628.328125 493.324219 628.011719 492.332031 627.351562 C 489.664062 625.574219 488.941406 621.964844 490.722656 619.300781 C 491.550781 618.058594 508.464844 592.742188 520.746094 578.117188 C 516.730469 571.867188 513.980469 567.738281 513.949219 567.6875 C 513.914062 567.640625 513.886719 567.589844 513.859375 567.546875 C 502.824219 549.894531 490.824219 534.621094 478.191406 522.15625 C 475.914062 519.898438 475.890625 516.226562 478.140625 513.941406 C 480.390625 511.660156 484.070312 511.636719 486.351562 513.890625 C 489.90625 517.398438 493.40625 521.128906 496.851562 525.046875 C 571.421875 466.488281 591.636719 369.808594 594.011719 338.050781 L 536.089844 338.050781 C 533.839844 397.15625 497.449219 453.003906 443.078125 481.585938 Z M 608.730469 312.972656 L 632.285156 259.90625 L 536.765625 217.503906 L 513.207031 270.570312 L 516.789062 272.160156 C 518.761719 267.613281 521.734375 263.027344 526.285156 258.472656 C 533.539062 251.222656 541.625 251.765625 546.640625 255.546875 C 547.292969 251.035156 549.1875 246.765625 550.921875 242.847656 C 552.226562 239.917969 555.652344 238.597656 558.589844 239.898438 C 561.515625 241.199219 562.84375 244.628906 561.539062 247.558594 C 559.480469 252.191406 557.539062 256.566406 558.128906 259.992188 C 558.757812 263.660156 562.886719 267.214844 570.390625 270.542969 C 577.894531 273.878906 583.300781 274.558594 586.445312 272.5625 C 589.378906 270.703125 591.324219 266.324219 593.382812 261.691406 C 594.679688 258.761719 598.109375 257.441406 601.042969 258.746094 C 603.972656 260.042969 605.292969 263.472656 603.992188 266.40625 C 601.449219 272.132812 598.570312 278.621094 592.660156 282.371094 C 589.589844 284.316406 586.078125 285.289062 582.074219 285.289062 C 577.324219 285.289062 571.886719 283.910156 565.675781 281.15625 C 560.300781 278.769531 556.09375 276.117188 552.988281 273.15625 C 552.546875 277.226562 551.144531 281.667969 548.535156 286.253906 Z M 582.648438 326.4375 L 582.648438 314.097656 L 547.527344 298.511719 C 547.800781 298.941406 548.09375 299.394531 548.40625 299.871094 C 551.003906 303.816406 554.921875 309.78125 550.996094 319.234375 C 549.765625 322.191406 546.371094 323.597656 543.40625 322.367188 C 540.445312 321.136719 539.039062 317.734375 540.269531 314.777344 C 541.835938 311.011719 540.984375 309.714844 538.703125 306.25 C 535.785156 301.8125 531.371094 295.105469 536.71875 283.390625 C 536.851562 283.105469 537.003906 282.828125 537.179688 282.574219 C 543.011719 273.855469 542.140625 266.839844 539.714844 264.851562 C 537.988281 263.433594 535.285156 265.894531 534.496094 266.683594 C 524.585938 276.59375 524.585938 286.242188 524.585938 297.410156 C 524.585938 313.035156 530.414062 322.753906 533.125 326.4375 Z M 327.171875 390.300781 C 327.171875 422.402344 341.988281 430.410156 355.066406 437.476562 C 364.1875 442.410156 373.621094 447.511719 373.621094 459.964844 C 373.621094 462.570312 373.117188 464.835938 372.226562 466.878906 L 384.683594 475.910156 L 397.75 465.601562 C 397.175781 463.894531 396.847656 462.042969 396.847656 459.964844 C 396.847656 446.273438 408.285156 439.273438 419.339844 432.503906 C 431.664062 424.964844 443.296875 417.835938 443.296875 401.910156 C 443.296875 399.863281 444.375 397.964844 446.136719 396.921875 C 447.953125 395.84375 449.726562 394.828125 451.433594 393.859375 C 461.625 388.066406 466.523438 385 466.523438 378.6875 C 466.523438 370.746094 465.511719 361.273438 460.714844 361.273438 C 456.039062 361.273438 454.976562 364.464844 454.910156 367.144531 C 454.910156 370.355469 452.3125 372.882812 449.105469 372.882812 C 430.828125 372.882812 429.214844 359.140625 428.148438 350.046875 C 427.359375 343.339844 426.703125 339.144531 423.28125 337.4375 C 411.5625 331.582031 395.054688 336.542969 377.582031 341.796875 C 365.894531 345.316406 353.84375 348.929688 342.234375 349.558594 C 342.527344 349.65625 342.824219 349.734375 343.113281 349.855469 L 354.082031 354.558594 C 355.371094 355.109375 356.203125 356.375 356.203125 357.773438 C 356.203125 359.707031 354.640625 361.273438 352.707031 361.273438 L 331.277344 361.273438 C 329.011719 361.273438 327.171875 359.433594 327.171875 357.167969 C 327.171875 356.078125 327.605469 355.035156 328.375 354.265625 L 330.324219 352.3125 C 331.628906 351.011719 333.207031 350.074219 334.890625 349.515625 C 332.269531 349.34375 329.691406 349.003906 327.171875 348.492188 Z M 338.785156 245.160156 C 313.171875 245.160156 292.335938 265.996094 292.335938 291.605469 C 292.335938 317.214844 313.171875 338.050781 338.785156 338.050781 C 349.734375 338.050781 362.191406 334.300781 374.234375 330.679688 C 393.109375 325.003906 412.632812 319.132812 428.476562 327.050781 C 437.679688 331.65625 438.789062 341.101562 439.679688 348.691406 C 440.570312 356.253906 441.3125 359.480469 444.476562 360.671875 C 446.546875 355.042969 451.53125 349.660156 460.714844 349.660156 C 462.847656 349.660156 464.78125 349.996094 466.523438 350.660156 L 466.523438 332.246094 C 466.523438 294.644531 465.21875 291.605469 449.105469 291.605469 C 446.605469 291.605469 444.386719 290.007812 443.59375 287.636719 C 436.378906 265.996094 418.132812 257.71875 389.316406 262.953125 C 393.089844 269.609375 395.605469 277.113281 396.496094 285.164062 C 396.847656 288.351562 394.546875 291.21875 391.359375 291.570312 C 388.171875 291.917969 385.304688 289.625 384.953125 286.433594 C 382.347656 262.90625 362.503906 245.160156 338.785156 245.160156 Z M 211.046875 430.9375 L 211.046875 378.6875 C 211.046875 364.964844 211.046875 364.964844 208.582031 361.265625 C 206.789062 358.578125 204.078125 354.515625 200.046875 346.453125 C 199.785156 345.929688 199.566406 345.414062 199.332031 344.898438 C 198.839844 347.601562 196.480469 349.660156 193.628906 349.660156 L 170.402344 349.660156 C 167.195312 349.660156 164.597656 347.066406 164.597656 343.855469 C 164.597656 340.648438 167.195312 338.050781 170.402344 338.050781 L 193.628906 338.050781 C 195.042969 338.050781 196.324219 338.578125 197.332031 339.417969 C 196.230469 335.386719 195.976562 331.5 196.621094 327.941406 C 197.648438 322.324219 200.898438 317.765625 205.546875 315.441406 C 207.277344 314.578125 209.132812 314.050781 211.046875 313.863281 L 211.046875 245.160156 L 83.308594 245.160156 L 83.308594 430.9375 Z M 222.660156 378.6875 L 222.660156 412.449219 C 228.25 408.242188 234.273438 401.183594 234.273438 390.300781 C 234.273438 356.839844 234.273438 356.839844 223.273438 334.839844 C 221.179688 330.652344 218.492188 327.578125 215.707031 326.1875 C 215.46875 326.070312 215.234375 325.960938 214.996094 325.867188 C 214.890625 325.832031 214.789062 325.796875 214.695312 325.757812 C 213.230469 325.253906 211.851562 325.269531 210.742188 325.828125 C 209.375 326.511719 208.417969 327.996094 208.054688 330.015625 C 207.492188 333.078125 208.34375 337.070312 210.433594 341.257812 C 214.144531 348.675781 216.609375 352.375 218.242188 354.824219 C 222.660156 361.449219 222.660156 362.753906 222.660156 378.6875 Z M 244.148438 593.609375 C 277.617188 595.34375 280.457031 618.753906 280.699219 639.9375 L 292.335938 639.9375 L 292.335938 576.078125 C 292.335938 572.867188 294.933594 570.273438 298.140625 570.273438 C 301.351562 570.273438 303.949219 572.867188 303.949219 576.078125 L 303.949219 639.9375 L 309.753906 639.9375 C 319.359375 639.9375 327.171875 647.75 327.171875 657.355469 C 327.171875 659.390625 326.804688 661.339844 326.15625 663.160156 L 379.679688 663.160156 L 379.503906 601.566406 L 340.21875 556.675781 C 339.296875 555.621094 338.785156 554.261719 338.785156 552.855469 L 338.785156 533.222656 L 318.769531 523.214844 C 316.183594 521.921875 314.941406 518.929688 315.855469 516.183594 L 321.753906 498.511719 C 318.960938 500.292969 316.105469 502.222656 313.167969 504.359375 C 312.136719 505.105469 310.9375 505.46875 309.761719 505.46875 C 307.960938 505.46875 306.191406 504.636719 305.058594 503.078125 C 303.171875 500.480469 303.742188 496.851562 306.339844 494.964844 C 310.542969 491.914062 314.628906 489.226562 318.554688 486.828125 C 287.292969 481.359375 268.351562 466.46875 257.417969 453.558594 C 248.039062 442.46875 241.128906 428.652344 237.402344 414.1875 C 233.242188 419.355469 227.996094 423.351562 222.660156 426.125 L 222.660156 436.746094 C 222.660156 439.953125 220.0625 442.550781 216.855469 442.550781 L 191.894531 442.550781 C 197.820312 465.539062 216.339844 514.496094 268.402344 531.148438 C 272.964844 525.601562 277.636719 520.414062 282.402344 515.605469 C 284.65625 513.328125 288.339844 513.304688 290.613281 515.5625 C 292.890625 517.816406 292.914062 521.492188 290.65625 523.769531 C 278.628906 535.914062 267.175781 550.644531 256.613281 567.546875 C 256.589844 567.589844 250.632812 577.550781 244.148438 593.609375 Z M 186.734375 547.050781 C 184.382812 547.050781 183.128906 548.582031 182.703125 549.238281 C 182.277344 549.894531 181.386719 551.652344 182.339844 553.800781 L 219.359375 637.085938 C 220.132812 638.820312 221.855469 639.9375 223.75 639.9375 C 226.101562 639.9375 227.351562 638.414062 227.785156 637.746094 C 228.207031 637.09375 229.105469 635.339844 228.148438 633.191406 L 191.117188 549.90625 C 190.347656 548.167969 188.632812 547.050781 186.734375 547.050781 Z M 678.449219 94.214844 L 562.324219 94.214844 C 559.121094 94.214844 556.519531 96.824219 556.519531 100.023438 L 556.519531 169.6875 C 556.519531 172.890625 559.121094 175.496094 562.324219 175.496094 L 573.9375 175.496094 C 577.148438 175.496094 579.746094 178.089844 579.746094 181.300781 L 579.746094 202.117188 L 604.671875 177.195312 C 605.757812 176.105469 607.234375 175.496094 608.777344 175.496094 L 678.449219 175.496094 C 681.65625 175.496094 684.257812 172.890625 684.257812 169.6875 L 684.257812 100.023438 C 684.257812 96.824219 681.65625 94.214844 678.449219 94.214844 Z M 739.417969 680.578125 C 739.417969 693.378906 728.996094 703.800781 716.191406 703.800781 L 65.890625 703.800781 C 53.082031 703.800781 42.667969 693.378906 42.667969 680.578125 C 42.667969 667.777344 53.082031 657.355469 65.890625 657.355469 L 77.503906 657.355469 C 77.503906 650.519531 80.515625 644.214844 85.425781 639.90625 L 50.296875 560.878906 C 47.238281 553.964844 47.859375 546.074219 51.964844 539.753906 C 56.089844 533.414062 63.054688 529.632812 70.609375 529.632812 L 186.734375 529.632812 C 195.496094 529.632812 203.460938 534.808594 207.039062 542.820312 L 226.988281 587.6875 L 227.722656 587.6875 C 234.878906 569.8125 241.472656 558.933594 241.773438 558.433594 C 245.027344 553.230469 248.351562 548.234375 251.714844 543.476562 C 222.316406 530.722656 204.199219 509.011719 193.878906 492.148438 C 184.195312 476.289062 178.609375 460.472656 175.417969 448.355469 L 77.503906 448.355469 C 71.101562 448.355469 65.890625 443.144531 65.890625 436.746094 L 65.890625 239.355469 C 65.890625 232.953125 71.101562 227.746094 77.503906 227.746094 L 216.855469 227.746094 C 223.253906 227.746094 228.464844 232.953125 228.464844 239.355469 L 228.464844 313.800781 C 232.550781 317.039062 236.085938 321.535156 238.847656 327.050781 C 251.335938 352.007812 251.691406 353.78125 251.691406 390.300781 C 251.691406 408.792969 258.808594 428.234375 270.722656 442.304688 C 285.503906 459.78125 307.144531 469.519531 335.078125 471.277344 C 337.339844 470.175781 339.484375 469.164062 341.507812 468.210938 C 346.910156 465.652344 354.878906 461.886719 356.199219 460.007812 C 356.171875 458.507812 355.121094 457.300781 346.78125 452.792969 C 339.402344 448.808594 330.230469 443.855469 322.710938 434.316406 C 313.996094 423.257812 309.753906 408.855469 309.753906 390.300781 L 309.753906 348.492188 C 288.40625 337.625 274.917969 315.898438 274.917969 291.605469 C 274.917969 256.390625 303.566406 227.746094 338.785156 227.746094 C 355.761719 227.746094 371.886719 234.429688 383.800781 246.242188 C 406.6875 241.707031 441.546875 241.304688 457.144531 274.660156 C 465.84375 275.800781 475.667969 279.570312 480.375 292.070312 C 483.941406 301.539062 483.941406 314.417969 483.941406 332.246094 L 483.941406 378.6875 C 483.941406 430.679688 449.066406 444.972656 428.222656 453.507812 C 424.054688 455.222656 416.539062 458.3125 414.441406 460.222656 C 416.175781 462.167969 423.753906 465.742188 428.863281 468.160156 C 429.222656 468.335938 429.585938 468.503906 429.957031 468.679688 C 473.734375 447.453125 516.953125 399.207031 518.710938 336.269531 C 514.113281 329.910156 507.167969 317.039062 507.167969 297.410156 C 507.167969 294.042969 507.167969 290.609375 507.425781 287.058594 L 500.832031 284.140625 C 497.992188 282.863281 495.832031 280.585938 494.71875 277.710938 C 493.613281 274.941406 493.664062 271.683594 494.90625 268.855469 L 523.203125 205.140625 C 524.382812 202.386719 526.757812 200.105469 529.671875 198.996094 C 532.46875 197.910156 535.589844 197.972656 538.421875 199.1875 L 562.324219 209.800781 L 562.324219 192.910156 C 549.523438 192.910156 539.101562 182.492188 539.101562 169.6875 L 539.101562 100.023438 C 539.101562 87.21875 549.523438 76.800781 562.324219 76.800781 L 678.449219 76.800781 C 691.253906 76.800781 701.675781 87.21875 701.675781 100.023438 L 701.675781 169.6875 C 701.675781 182.492188 691.253906 192.910156 678.449219 192.910156 L 613.585938 192.910156 L 586.128906 220.363281 L 644.667969 246.347656 C 650.527344 248.953125 653.15625 255.835938 650.554688 261.683594 L 622.292969 325.339844 C 621.011719 328.191406 618.738281 330.351562 615.875 331.46875 C 614.566406 331.976562 613.140625 332.246094 611.679688 332.246094 C 611.679688 351.300781 605.589844 387.976562 588.421875 428.632812 C 575.453125 459.355469 551.914062 501.960938 512.417969 534.855469 C 516.414062 540.078125 520.316406 545.558594 524.082031 551.246094 C 519.890625 543.664062 521.09375 534.125 527.453125 527.757812 C 531.339844 523.875 536.742188 521.746094 542.289062 521.972656 C 547.902344 522.242188 553.105469 524.824219 556.65625 529.070312 L 568.636719 543.445312 L 577.089844 503.980469 C 578.253906 498.648438 583.027344 494.800781 588.453125 494.800781 L 623.292969 494.800781 C 623.292969 482 633.714844 471.578125 646.515625 471.578125 C 659.320312 471.578125 669.742188 482 669.742188 494.800781 L 704.578125 494.800781 C 708.105469 494.800781 711.398438 496.371094 713.617188 499.109375 C 715.800781 501.8125 716.65625 505.328125 715.960938 508.757812 L 684.117188 657.355469 L 716.191406 657.355469 C 728.996094 657.355469 739.417969 667.777344 739.417969 680.578125 Z M 193.628906 407.714844 L 158.792969 407.714844 C 155.582031 407.714844 152.984375 410.3125 152.984375 413.523438 C 152.984375 416.730469 155.582031 419.328125 158.792969 419.328125 L 193.628906 419.328125 C 196.839844 419.328125 199.433594 416.730469 199.433594 413.523438 C 199.433594 410.3125 196.839844 407.714844 193.628906 407.714844 Z M 193.628906 372.882812 L 158.792969 372.882812 C 155.582031 372.882812 152.984375 375.480469 152.984375 378.6875 C 152.984375 381.898438 155.582031 384.496094 158.792969 384.496094 L 193.628906 384.496094 C 196.839844 384.496094 199.433594 381.898438 199.433594 378.6875 C 199.433594 375.480469 196.839844 372.882812 193.628906 372.882812 Z M 135.566406 372.882812 L 100.730469 372.882812 C 97.519531 372.882812 94.921875 375.480469 94.921875 378.6875 C 94.921875 381.898438 97.519531 384.496094 100.730469 384.496094 L 135.566406 384.496094 C 138.777344 384.496094 141.371094 381.898438 141.371094 378.6875 C 141.371094 375.480469 138.777344 372.882812 135.566406 372.882812 Z M 147.179688 338.050781 L 100.730469 338.050781 C 97.519531 338.050781 94.921875 340.648438 94.921875 343.855469 C 94.921875 347.066406 97.519531 349.660156 100.730469 349.660156 L 147.179688 349.660156 C 150.386719 349.660156 152.984375 347.066406 152.984375 343.855469 C 152.984375 340.648438 150.386719 338.050781 147.179688 338.050781 Z M 193.628906 303.214844 L 158.792969 303.214844 C 155.582031 303.214844 152.984375 305.8125 152.984375 309.023438 C 152.984375 312.230469 155.582031 314.828125 158.792969 314.828125 L 193.628906 314.828125 C 196.839844 314.828125 199.433594 312.230469 199.433594 309.023438 C 199.433594 305.8125 196.839844 303.214844 193.628906 303.214844 Z M 100.730469 314.828125 L 135.566406 314.828125 C 138.777344 314.828125 141.371094 312.230469 141.371094 309.023438 C 141.371094 305.8125 138.777344 303.214844 135.566406 303.214844 L 100.730469 303.214844 C 97.519531 303.214844 94.921875 305.8125 94.921875 309.023438 C 94.921875 312.230469 97.519531 314.828125 100.730469 314.828125 Z M 182.015625 279.996094 L 193.628906 279.996094 C 196.839844 279.996094 199.433594 277.398438 199.433594 274.1875 C 199.433594 270.980469 196.839844 268.382812 193.628906 268.382812 L 182.015625 268.382812 C 178.808594 268.382812 176.210938 270.980469 176.210938 274.1875 C 176.210938 277.398438 178.808594 279.996094 182.015625 279.996094 Z M 147.179688 279.996094 L 158.792969 279.996094 C 162 279.996094 164.597656 277.398438 164.597656 274.1875 C 164.597656 270.980469 162 268.382812 158.792969 268.382812 L 147.179688 268.382812 C 143.96875 268.382812 141.371094 270.980469 141.371094 274.1875 C 141.371094 277.398438 143.96875 279.996094 147.179688 279.996094 Z M 152.984375 593.496094 C 152.984375 587.09375 147.773438 581.882812 141.371094 581.882812 C 134.972656 581.882812 129.761719 587.09375 129.761719 593.496094 C 129.761719 599.894531 134.972656 605.105469 141.371094 605.105469 C 147.773438 605.105469 152.984375 599.894531 152.984375 593.496094 Z M 164.597656 593.496094 C 164.597656 606.296875 154.183594 616.714844 141.371094 616.714844 C 128.5625 616.714844 118.148438 606.296875 118.148438 593.496094 C 118.148438 580.691406 128.5625 570.273438 141.371094 570.273438 C 154.183594 570.273438 164.597656 580.691406 164.597656 593.496094 Z M 324.859375 310.171875 C 323.097656 308.851562 321.535156 307.292969 320.214844 305.53125 C 318.289062 302.96875 314.648438 302.457031 312.085938 304.382812 C 309.523438 306.3125 309.003906 309.953125 310.933594 312.515625 C 312.914062 315.140625 315.25 317.476562 317.875 319.453125 C 318.921875 320.242188 320.148438 320.617188 321.359375 320.617188 C 323.125 320.617188 324.863281 319.824219 326.003906 318.304688 C 327.933594 315.742188 327.421875 312.101562 324.859375 310.171875 Z M 331.816406 257.46875 C 315.667969 260.761719 303.949219 275.117188 303.949219 291.605469 C 303.949219 294.816406 306.542969 297.410156 309.753906 297.410156 C 312.964844 297.410156 315.558594 294.816406 315.558594 291.605469 C 315.558594 280.613281 323.375 271.042969 334.140625 268.847656 C 337.28125 268.207031 339.308594 265.144531 338.667969 262 C 338.027344 258.859375 334.957031 256.835938 331.816406 257.46875 Z M 379.429688 430.9375 C 393.328125 430.9375 400.6875 423.648438 406.59375 417.792969 L 406.742188 417.644531 C 409.023438 415.386719 409.03125 411.714844 406.777344 409.433594 C 404.519531 407.160156 400.84375 407.144531 398.566406 409.402344 L 398.417969 409.546875 C 393.121094 414.792969 388.546875 419.328125 379.429688 419.328125 C 376.21875 419.328125 373.621094 421.925781 373.621094 425.132812 C 373.621094 428.34375 376.21875 430.9375 379.429688 430.9375 Z M 382.925781 361.273438 L 404.355469 361.273438 C 406.625 361.273438 408.460938 359.433594 408.460938 357.167969 C 408.460938 356.078125 408.03125 355.035156 407.257812 354.265625 L 405.308594 352.3125 C 401.949219 348.957031 396.886719 347.984375 392.527344 349.855469 L 381.550781 354.558594 C 380.261719 355.109375 379.429688 356.375 379.429688 357.773438 C 379.429688 359.707031 380.992188 361.273438 382.925781 361.273438 Z M 391.042969 372.882812 C 391.042969 376.09375 393.636719 378.6875 396.847656 378.6875 C 400.058594 378.6875 402.652344 376.09375 402.652344 372.882812 C 402.652344 369.675781 400.058594 367.078125 396.847656 367.078125 C 393.636719 367.078125 391.042969 369.675781 391.042969 372.882812 Z M 344.589844 372.882812 C 344.589844 369.675781 341.996094 367.078125 338.785156 367.078125 C 335.574219 367.078125 332.980469 369.675781 332.980469 372.882812 C 332.980469 376.09375 335.574219 378.6875 338.785156 378.6875 C 341.996094 378.6875 344.589844 376.09375 344.589844 372.882812 Z M 348.640625 390.300781 C 348.640625 385.679688 350.449219 381.371094 353.730469 378.167969 C 356.199219 375.757812 360.644531 372.882812 367.816406 372.882812 C 371.027344 372.882812 373.621094 375.480469 373.621094 378.6875 C 373.621094 381.898438 371.027344 384.496094 367.816406 384.496094 C 365.238281 384.496094 363.167969 385.179688 361.847656 386.46875 C 360.820312 387.476562 360.253906 388.832031 360.253906 390.300781 C 360.253906 392.976562 362.230469 396.105469 367.816406 396.105469 C 371.027344 396.105469 373.621094 398.703125 373.621094 401.910156 C 373.621094 405.121094 371.027344 407.714844 367.816406 407.714844 C 355.230469 407.714844 348.640625 398.957031 348.640625 390.300781 " clip-rule="nonzero"/></clipPath><clipPath id="id4"><path d="M -270.871094 390.300781 L 391.042969 1052.132812 L 1052.953125 390.300781 L 391.042969 -271.535156 Z M -270.871094 390.300781 " clip-rule="nonzero"/></clipPath><linearGradient x1="-0.0108198" gradientTransform="matrix(629.422115, -629.346855, 629.422115, 629.346855, 108.740007, 756.246654)" y1="0" x2="1.0408" gradientUnits="userSpaceOnUse" y2="0" xlink:type="simple" xlink:actuate="onLoad" id="id5" xlink:show="other"><stop stop-opacity="1" stop-color="rgb(1.998901%, 45.899963%, 88.198853%)" offset="0"/><stop stop-opacity="1" stop-color="rgb(1.998901%, 45.899963%, 88.198853%)" offset="0.015625"/><stop stop-opacity="1" stop-color="rgb(1.998901%, 46.299744%, 87.849426%)" offset="0.0195313"/><stop stop-opacity="1" stop-color="rgb(1.998901%, 46.699524%, 87.5%)" offset="0.0234375"/><stop stop-opacity="1" stop-color="rgb(1.998901%, 46.899414%, 87.298584%)" offset="0.0273438"/><stop stop-opacity="1" stop-color="rgb(1.998901%, 47.099304%, 87.098694%)" offset="0.03125"/><stop stop-opacity="1" stop-color="rgb(1.998901%, 47.299194%, 86.898804%)" offset="0.0351562"/><stop stop-opacity="1" stop-color="rgb(1.998901%, 47.499084%, 86.698914%)" offset="0.0390625"/><stop stop-opacity="1" stop-color="rgb(1.998901%, 47.648621%, 86.499023%)" offset="0.0429688"/><stop stop-opacity="1" stop-color="rgb(1.998901%, 47.799683%, 86.299133%)" offset="0.046875"/><stop stop-opacity="1" stop-color="rgb(1.998901%, 47.990417%, 86.106873%)" offset="0.0546875"/><stop stop-opacity="1" stop-color="rgb(1.998901%, 48.373413%, 85.707092%)" offset="0.0585938"/><stop stop-opacity="1" stop-color="rgb(1.998901%, 48.564148%, 85.499573%)" offset="0.0625"/><stop stop-opacity="1" stop-color="rgb(1.998901%, 48.780823%, 85.276794%)" offset="0.0664062"/><stop stop-opacity="1" stop-color="rgb(1.998901%, 48.999023%, 85.054016%)" offset="0.0703125"/><stop stop-opacity="1" stop-color="rgb(1.998901%, 49.198914%, 84.863281%)" offset="0.0742187"/><stop stop-opacity="1" stop-color="rgb(1.998901%, 49.398804%, 84.672546%)" offset="0.078125"/><stop stop-opacity="1" stop-color="rgb(1.998901%, 49.598694%, 84.481812%)" offset="0.0820312"/><stop stop-opacity="1" stop-color="rgb(1.998901%, 49.798584%, 84.291077%)" offset="0.0859375"/><stop stop-opacity="1" stop-color="rgb(1.998901%, 49.992371%, 84.094238%)" offset="0.0898437"/><stop stop-opacity="1" stop-color="rgb(1.998901%, 50.187683%, 83.898926%)" offset="0.09375"/><stop stop-opacity="1" stop-color="rgb(1.998901%, 50.378418%, 83.699036%)" offset="0.0976562"/><stop stop-opacity="1" stop-color="rgb(1.998901%, 50.569153%, 83.499146%)" offset="0.101562"/><stop stop-opacity="1" stop-color="rgb(1.998901%, 50.784302%, 83.273315%)" offset="0.105469"/><stop stop-opacity="1" stop-color="rgb(1.998901%, 50.999451%, 83.049011%)" offset="0.109375"/><stop stop-opacity="1" stop-color="rgb(1.998901%, 51.014709%, 82.861328%)" offset="0.117187"/><stop stop-opacity="1" stop-color="rgb(1.998901%, 51.220703%, 82.530212%)" offset="0.125"/><stop stop-opacity="1" stop-color="rgb(1.998901%, 51.605225%, 82.192993%)" offset="0.132812"/><stop stop-opacity="1" stop-color="rgb(1.998901%, 51.998901%, 81.611633%)" offset="0.136719"/><stop stop-opacity="1" stop-color="rgb(1.998901%, 52.198792%, 81.22406%)" offset="0.140625"/><stop stop-opacity="1" stop-color="rgb(1.998901%, 52.375793%, 81.011963%)" offset="0.144531"/><stop stop-opacity="1" stop-color="rgb(1.998901%, 52.554321%, 80.799866%)" offset="0.148437"/><stop stop-opacity="1" stop-color="rgb(1.998901%, 52.745056%, 80.59845%)" offset="0.152344"/><stop stop-opacity="1" stop-color="rgb(1.998901%, 52.935791%, 80.39856%)" offset="0.15625"/><stop stop-opacity="1" stop-color="rgb(1.998901%, 53.126526%, 80.198669%)" offset="0.160156"/><stop stop-opacity="1" stop-color="rgb(1.998901%, 53.317261%, 79.998779%)" offset="0.164062"/><stop stop-opacity="1" stop-color="rgb(1.799011%, 53.507996%, 79.798889%)" offset="0.167969"/><stop stop-opacity="1" stop-color="rgb(1.600647%, 53.69873%, 79.600525%)" offset="0.171875"/><stop stop-opacity="1" stop-color="rgb(1.599121%, 53.898621%, 79.40979%)" offset="0.175781"/><stop stop-opacity="1" stop-color="rgb(1.599121%, 54.098511%, 79.220581%)" offset="0.179687"/><stop stop-opacity="1" stop-color="rgb(1.599121%, 54.298401%, 79.029846%)" offset="0.183594"/><stop stop-opacity="1" stop-color="rgb(1.599121%, 54.499817%, 78.839111%)" offset="0.1875"/><stop stop-opacity="1" stop-color="rgb(1.599121%, 54.719543%, 78.619385%)" offset="0.191406"/><stop stop-opacity="1" stop-color="rgb(1.599121%, 54.940796%, 78.399658%)" offset="0.195312"/><stop stop-opacity="1" stop-color="rgb(1.599121%, 55.131531%, 78.199768%)" offset="0.199219"/><stop stop-opacity="1" stop-color="rgb(1.599121%, 55.322266%, 77.999878%)" offset="0.203125"/><stop stop-opacity="1" stop-color="rgb(1.599121%, 55.511475%, 77.798462%)" offset="0.207031"/><stop stop-opacity="1" stop-color="rgb(1.599121%, 55.702209%, 77.597046%)" offset="0.210937"/><stop stop-opacity="1" stop-color="rgb(1.599121%, 55.900574%, 77.44751%)" offset="0.214844"/><stop stop-opacity="1" stop-color="rgb(1.599121%, 56.098938%, 77.2995%)" offset="0.21875"/><stop stop-opacity="1" stop-color="rgb(1.599121%, 56.298828%, 77.099609%)" offset="0.222656"/><stop stop-opacity="1" stop-color="rgb(1.599121%, 56.498718%, 76.899719%)" offset="0.226562"/><stop stop-opacity="1" stop-color="rgb(1.599121%, 56.721497%, 76.675415%)" offset="0.230469"/><stop stop-opacity="1" stop-color="rgb(1.599121%, 56.945801%, 76.452637%)" offset="0.234375"/><stop stop-opacity="1" stop-color="rgb(1.599121%, 57.131958%, 76.261902%)" offset="0.242187"/><stop stop-opacity="1" stop-color="rgb(1.599121%, 57.463074%, 75.881958%)" offset="0.25"/><stop stop-opacity="1" stop-color="rgb(1.599121%, 57.803345%, 75.494385%)" offset="0.253906"/><stop stop-opacity="1" stop-color="rgb(1.599121%, 57.998657%, 75.299072%)" offset="0.257812"/><stop stop-opacity="1" stop-color="rgb(1.599121%, 58.198547%, 75.099182%)" offset="0.261719"/><stop stop-opacity="1" stop-color="rgb(1.599121%, 58.399963%, 74.899292%)" offset="0.265625"/><stop stop-opacity="1" stop-color="rgb(1.599121%, 58.624268%, 74.673462%)" offset="0.269531"/><stop stop-opacity="1" stop-color="rgb(1.599121%, 58.850098%, 74.447632%)" offset="0.273437"/><stop stop-opacity="1" stop-color="rgb(1.599121%, 59.040833%, 74.256897%)" offset="0.28125"/><stop stop-opacity="1" stop-color="rgb(1.599121%, 59.420776%, 73.683167%)" offset="0.285156"/><stop stop-opacity="1" stop-color="rgb(1.599121%, 59.611511%, 73.298645%)" offset="0.289062"/><stop stop-opacity="1" stop-color="rgb(1.599121%, 59.805298%, 73.101807%)" offset="0.292969"/><stop stop-opacity="1" stop-color="rgb(1.599121%, 59.999084%, 72.904968%)" offset="0.296875"/><stop stop-opacity="1" stop-color="rgb(1.599121%, 60.198975%, 72.714233%)" offset="0.300781"/><stop stop-opacity="1" stop-color="rgb(1.599121%, 60.398865%, 72.525024%)" offset="0.304687"/><stop stop-opacity="1" stop-color="rgb(1.599121%, 60.598755%, 72.37854%)" offset="0.308594"/><stop stop-opacity="1" stop-color="rgb(1.599121%, 60.798645%, 72.232056%)" offset="0.3125"/><stop stop-opacity="1" stop-color="rgb(1.599121%, 61.016846%, 72.015381%)" offset="0.316406"/><stop stop-opacity="1" stop-color="rgb(1.599121%, 61.236572%, 71.798706%)" offset="0.320312"/><stop stop-opacity="1" stop-color="rgb(1.599121%, 61.425781%, 71.598816%)" offset="0.324219"/><stop stop-opacity="1" stop-color="rgb(1.599121%, 61.616516%, 71.398926%)" offset="0.328125"/><stop stop-opacity="1" stop-color="rgb(1.599121%, 61.807251%, 71.199036%)" offset="0.332031"/><stop stop-opacity="1" stop-color="rgb(1.599121%, 61.999512%, 71.000671%)" offset="0.335937"/><stop stop-opacity="1" stop-color="rgb(1.599121%, 62.199402%, 70.809937%)" offset="0.339844"/><stop stop-opacity="1" stop-color="rgb(1.599121%, 62.399292%, 70.619202%)" offset="0.34375"/><stop stop-opacity="1" stop-color="rgb(1.599121%, 62.548828%, 70.428467%)" offset="0.351562"/><stop stop-opacity="1" stop-color="rgb(1.599121%, 62.919617%, 69.998169%)" offset="0.355469"/><stop stop-opacity="1" stop-color="rgb(1.599121%, 63.140869%, 69.75708%)" offset="0.359375"/><stop stop-opacity="1" stop-color="rgb(1.599121%, 63.331604%, 69.566345%)" offset="0.367187"/><stop stop-opacity="1" stop-color="rgb(1.599121%, 63.711548%, 69.186401%)" offset="0.375"/><stop stop-opacity="1" stop-color="rgb(1.599121%, 64.100647%, 68.797302%)" offset="0.378906"/><stop stop-opacity="1" stop-color="rgb(1.599121%, 64.299011%, 68.598938%)" offset="0.382812"/><stop stop-opacity="1" stop-color="rgb(1.599121%, 64.482117%, 68.399048%)" offset="0.386719"/><stop stop-opacity="1" stop-color="rgb(1.599121%, 64.665222%, 68.199158%)" offset="0.390625"/><stop stop-opacity="1" stop-color="rgb(1.599121%, 64.881897%, 67.980957%)" offset="0.394531"/><stop stop-opacity="1" stop-color="rgb(1.599121%, 65.098572%, 67.764282%)" offset="0.398437"/><stop stop-opacity="1" stop-color="rgb(1.599121%, 65.298462%, 67.617798%)" offset="0.402344"/><stop stop-opacity="1" stop-color="rgb(1.599121%, 65.499878%, 67.471313%)" offset="0.40625"/><stop stop-opacity="1" stop-color="rgb(1.599121%, 65.699768%, 67.280579%)" offset="0.410156"/><stop stop-opacity="1" stop-color="rgb(1.599121%, 65.899658%, 67.09137%)" offset="0.414062"/><stop stop-opacity="1" stop-color="rgb(1.599121%, 66.093445%, 66.894531%)" offset="0.417969"/><stop stop-opacity="1" stop-color="rgb(1.599121%, 66.288757%, 66.699219%)" offset="0.421875"/><stop stop-opacity="1" stop-color="rgb(1.599121%, 66.479492%, 66.499329%)" offset="0.425781"/><stop stop-opacity="1" stop-color="rgb(1.599121%, 66.670227%, 66.299438%)" offset="0.429687"/><stop stop-opacity="1" stop-color="rgb(1.599121%, 66.859436%, 65.922546%)" offset="0.433594"/><stop stop-opacity="1" stop-color="rgb(1.599121%, 67.050171%, 65.54718%)" offset="0.4375"/><stop stop-opacity="1" stop-color="rgb(1.599121%, 67.274475%, 65.322876%)" offset="0.441406"/><stop stop-opacity="1" stop-color="rgb(1.599121%, 67.498779%, 65.098572%)" offset="0.445312"/><stop stop-opacity="1" stop-color="rgb(1.599121%, 67.648315%, 64.898682%)" offset="0.449219"/><stop stop-opacity="1" stop-color="rgb(1.599121%, 67.799377%, 64.698792%)" offset="0.453125"/><stop stop-opacity="1" stop-color="rgb(1.599121%, 67.996216%, 64.501953%)" offset="0.457031"/><stop stop-opacity="1" stop-color="rgb(1.599121%, 68.193054%, 64.305115%)" offset="0.460937"/><stop stop-opacity="1" stop-color="rgb(1.599121%, 68.383789%, 64.11438%)" offset="0.46875"/><stop stop-opacity="1" stop-color="rgb(1.599121%, 68.765259%, 63.73291%)" offset="0.476562"/><stop stop-opacity="1" stop-color="rgb(1.580811%, 69.177246%, 63.320923%)" offset="0.480469"/><stop stop-opacity="1" stop-color="rgb(1.5625%, 69.398499%, 63.09967%)" offset="0.484375"/><stop stop-opacity="1" stop-color="rgb(1.38092%, 69.598389%, 62.89978%)" offset="0.488281"/><stop stop-opacity="1" stop-color="rgb(1.199341%, 69.799805%, 62.69989%)" offset="0.492187"/><stop stop-opacity="1" stop-color="rgb(1.199341%, 69.998169%, 62.548828%)" offset="0.496094"/><stop stop-opacity="1" stop-color="rgb(1.199341%, 70.198059%, 62.399292%)" offset="0.5"/><stop stop-opacity="1" stop-color="rgb(1.199341%, 70.388794%, 62.208557%)" offset="0.507812"/><stop stop-opacity="1" stop-color="rgb(1.199341%, 70.768738%, 61.808777%)" offset="0.511719"/><stop stop-opacity="1" stop-color="rgb(1.199341%, 70.959473%, 61.599731%)" offset="0.515625"/><stop stop-opacity="1" stop-color="rgb(1.199341%, 71.179199%, 61.378479%)" offset="0.519531"/><stop stop-opacity="1" stop-color="rgb(1.199341%, 71.398926%, 61.157227%)" offset="0.523438"/><stop stop-opacity="1" stop-color="rgb(1.199341%, 71.598816%, 60.966492%)" offset="0.527344"/><stop stop-opacity="1" stop-color="rgb(1.199341%, 71.798706%, 60.775757%)" offset="0.53125"/><stop stop-opacity="1" stop-color="rgb(1.199341%, 71.998596%, 60.585022%)" offset="0.535156"/><stop stop-opacity="1" stop-color="rgb(1.199341%, 72.198486%, 60.395813%)" offset="0.539063"/><stop stop-opacity="1" stop-color="rgb(1.199341%, 72.343445%, 60.197449%)" offset="0.542969"/><stop stop-opacity="1" stop-color="rgb(1.199341%, 72.488403%, 59.999084%)" offset="0.546875"/><stop stop-opacity="1" stop-color="rgb(1.199341%, 72.676086%, 59.799194%)" offset="0.550781"/><stop stop-opacity="1" stop-color="rgb(1.199341%, 72.865295%, 59.599304%)" offset="0.554688"/><stop stop-opacity="1" stop-color="rgb(1.199341%, 73.05603%, 59.399414%)" offset="0.558594"/><stop stop-opacity="1" stop-color="rgb(1.199341%, 73.246765%, 59.199524%)" offset="0.5625"/><stop stop-opacity="1" stop-color="rgb(1.199341%, 73.472595%, 58.984375%)" offset="0.566406"/><stop stop-opacity="1" stop-color="rgb(1.199341%, 73.699951%, 58.770752%)" offset="0.570313"/><stop stop-opacity="1" stop-color="rgb(1.199341%, 73.899841%, 58.580017%)" offset="0.574219"/><stop stop-opacity="1" stop-color="rgb(1.199341%, 74.099731%, 58.390808%)" offset="0.578125"/><stop stop-opacity="1" stop-color="rgb(1.199341%, 74.293518%, 58.19397%)" offset="0.582031"/><stop stop-opacity="1" stop-color="rgb(1.199341%, 74.488831%, 57.998657%)" offset="0.585938"/><stop stop-opacity="1" stop-color="rgb(1.199341%, 74.679565%, 57.659912%)" offset="0.589844"/><stop stop-opacity="1" stop-color="rgb(1.199341%, 74.8703%, 57.321167%)" offset="0.59375"/><stop stop-opacity="1" stop-color="rgb(1.199341%, 75.059509%, 57.133484%)" offset="0.601563"/><stop stop-opacity="1" stop-color="rgb(1.199341%, 75.474548%, 56.723022%)" offset="0.605469"/><stop stop-opacity="1" stop-color="rgb(1.199341%, 75.698853%, 56.498718%)" offset="0.609375"/><stop stop-opacity="1" stop-color="rgb(1.199341%, 75.898743%, 56.298828%)" offset="0.613281"/><stop stop-opacity="1" stop-color="rgb(1.199341%, 76.098633%, 56.098938%)" offset="0.617188"/><stop stop-opacity="1" stop-color="rgb(1.199341%, 76.295471%, 55.9021%)" offset="0.621094"/><stop stop-opacity="1" stop-color="rgb(1.199341%, 76.493835%, 55.705261%)" offset="0.625"/><stop stop-opacity="1" stop-color="rgb(1.199341%, 76.68457%, 55.514526%)" offset="0.632813"/><stop stop-opacity="1" stop-color="rgb(1.199341%, 77.064514%, 55.133057%)" offset="0.640625"/><stop stop-opacity="1" stop-color="rgb(1.199341%, 77.426147%, 54.721069%)" offset="0.644531"/><stop stop-opacity="1" stop-color="rgb(1.199341%, 77.598572%, 54.499817%)" offset="0.648438"/><stop stop-opacity="1" stop-color="rgb(1.199341%, 77.798462%, 54.298401%)" offset="0.652344"/><stop stop-opacity="1" stop-color="rgb(1.199341%, 77.999878%, 54.098511%)" offset="0.65625"/><stop stop-opacity="1" stop-color="rgb(1.199341%, 77.999878%, 53.898621%)" offset="0.660156"/><stop stop-opacity="1" stop-color="rgb(1.199341%, 77.999878%, 53.700256%)" offset="0.664063"/><stop stop-opacity="1" stop-color="rgb(1.199341%, 78.199768%, 53.49884%)" offset="0.667969"/><stop stop-opacity="1" stop-color="rgb(1.199341%, 78.399658%, 53.29895%)" offset="0.671875"/><stop stop-opacity="1" stop-color="rgb(1.199341%, 78.599548%, 53.09906%)" offset="0.675781"/><stop stop-opacity="1" stop-color="rgb(1.199341%, 78.799438%, 52.89917%)" offset="0.679688"/><stop stop-opacity="1" stop-color="rgb(1.199341%, 78.999329%, 52.69928%)" offset="0.683594"/><stop stop-opacity="1" stop-color="rgb(1.199341%, 79.199219%, 52.49939%)" offset="0.6875"/><stop stop-opacity="1" stop-color="rgb(1.199341%, 79.40979%, 52.337646%)" offset="0.691406"/><stop stop-opacity="1" stop-color="rgb(1.199341%, 79.621887%, 52.175903%)" offset="0.695313"/><stop stop-opacity="1" stop-color="rgb(1.199341%, 79.812622%, 51.985168%)" offset="0.703125"/><stop stop-opacity="1" stop-color="rgb(1.199341%, 80.200195%, 51.596069%)" offset="0.707031"/><stop stop-opacity="1" stop-color="rgb(1.199341%, 80.39856%, 51.399231%)" offset="0.710938"/><stop stop-opacity="1" stop-color="rgb(1.199341%, 80.59845%, 51.199341%)" offset="0.714844"/><stop stop-opacity="1" stop-color="rgb(1.199341%, 80.799866%, 50.999451%)" offset="0.71875"/><stop stop-opacity="1" stop-color="rgb(1.199341%, 80.999756%, 50.799561%)" offset="0.722656"/><stop stop-opacity="1" stop-color="rgb(1.199341%, 81.199646%, 50.59967%)" offset="0.726563"/><stop stop-opacity="1" stop-color="rgb(1.199341%, 81.413269%, 50.384521%)" offset="0.730469"/><stop stop-opacity="1" stop-color="rgb(1.199341%, 81.626892%, 50.170898%)" offset="0.734375"/><stop stop-opacity="1" stop-color="rgb(1.199341%, 81.817627%, 49.784851%)" offset="0.738281"/><stop stop-opacity="1" stop-color="rgb(1.199341%, 82.008362%, 49.398804%)" offset="0.742188"/><stop stop-opacity="1" stop-color="rgb(1.199341%, 82.203674%, 49.203491%)" offset="0.75"/><stop stop-opacity="1" stop-color="rgb(1.199341%, 82.548523%, 48.81897%)" offset="0.757813"/><stop stop-opacity="1" stop-color="rgb(1.199341%, 82.899475%, 48.4375%)" offset="0.761719"/><stop stop-opacity="1" stop-color="rgb(1.199341%, 83.099365%, 48.246765%)" offset="0.765625"/><stop stop-opacity="1" stop-color="rgb(1.199341%, 83.31604%, 48.022461%)" offset="0.769531"/><stop stop-opacity="1" stop-color="rgb(1.199341%, 83.532715%, 47.799683%)" offset="0.773438"/><stop stop-opacity="1" stop-color="rgb(1.199341%, 83.721924%, 47.648621%)" offset="0.78125"/><stop stop-opacity="1" stop-color="rgb(1.199341%, 84.104919%, 47.30072%)" offset="0.785156"/><stop stop-opacity="1" stop-color="rgb(1.199341%, 84.298706%, 47.103882%)" offset="0.789063"/><stop stop-opacity="1" stop-color="rgb(1.199341%, 84.498596%, 46.913147%)" offset="0.792969"/><stop stop-opacity="1" stop-color="rgb(1.199341%, 84.698486%, 46.723938%)" offset="0.796875"/><stop stop-opacity="1" stop-color="rgb(1.020813%, 84.898376%, 46.533203%)" offset="0.800781"/><stop stop-opacity="1" stop-color="rgb(0.842285%, 85.099792%, 46.342468%)" offset="0.804688"/><stop stop-opacity="1" stop-color="rgb(0.820923%, 85.299683%, 46.151733%)" offset="0.808594"/><stop stop-opacity="1" stop-color="rgb(0.799561%, 85.499573%, 45.960999%)" offset="0.8125"/><stop stop-opacity="1" stop-color="rgb(0.799561%, 85.708618%, 45.71991%)" offset="0.816406"/><stop stop-opacity="1" stop-color="rgb(0.799561%, 85.917664%, 45.480347%)" offset="0.820313"/><stop stop-opacity="1" stop-color="rgb(0.799561%, 86.108398%, 45.289612%)" offset="0.828125"/><stop stop-opacity="1" stop-color="rgb(0.799561%, 86.499023%, 44.898987%)" offset="0.832031"/><stop stop-opacity="1" stop-color="rgb(0.799561%, 86.698914%, 44.699097%)" offset="0.835938"/><stop stop-opacity="1" stop-color="rgb(0.799561%, 86.898804%, 44.499207%)" offset="0.839844"/><stop stop-opacity="1" stop-color="rgb(0.799561%, 87.098694%, 44.299316%)" offset="0.84375"/><stop stop-opacity="1" stop-color="rgb(0.799561%, 87.298584%, 44.099426%)" offset="0.847656"/><stop stop-opacity="1" stop-color="rgb(0.799561%, 87.5%, 43.899536%)" offset="0.851563"/><stop stop-opacity="1" stop-color="rgb(0.799561%, 87.661743%, 43.687439%)" offset="0.855469"/><stop stop-opacity="1" stop-color="rgb(0.799561%, 87.823486%, 43.475342%)" offset="0.859375"/><stop stop-opacity="1" stop-color="rgb(0.799561%, 88.012695%, 43.284607%)" offset="0.867188"/><stop stop-opacity="1" stop-color="rgb(0.799561%, 88.400269%, 42.897034%)" offset="0.871094"/><stop stop-opacity="1" stop-color="rgb(0.799561%, 88.598633%, 42.698669%)" offset="0.875"/><stop stop-opacity="1" stop-color="rgb(0.799561%, 88.798523%, 42.549133%)" offset="0.878906"/><stop stop-opacity="1" stop-color="rgb(0.799561%, 88.999939%, 42.399597%)" offset="0.882813"/><stop stop-opacity="1" stop-color="rgb(0.799561%, 89.199829%, 42.199707%)" offset="0.886719"/><stop stop-opacity="1" stop-color="rgb(0.799561%, 89.399719%, 41.999817%)" offset="0.890625"/><stop stop-opacity="1" stop-color="rgb(0.799561%, 89.613342%, 41.598511%)" offset="0.894531"/><stop stop-opacity="1" stop-color="rgb(0.799561%, 89.826965%, 41.19873%)" offset="0.898438"/><stop stop-opacity="1" stop-color="rgb(0.799561%, 90.0177%, 40.99884%)" offset="0.902344"/><stop stop-opacity="1" stop-color="rgb(0.799561%, 90.208435%, 40.79895%)" offset="0.90625"/><stop stop-opacity="1" stop-color="rgb(0.799561%, 90.403748%, 40.603638%)" offset="0.914063"/><stop stop-opacity="1" stop-color="rgb(0.799561%, 90.79895%, 40.21759%)" offset="0.917969"/><stop stop-opacity="1" stop-color="rgb(0.799561%, 90.99884%, 40.028381%)" offset="0.921875"/><stop stop-opacity="1" stop-color="rgb(0.799561%, 91.19873%, 39.837646%)" offset="0.925781"/><stop stop-opacity="1" stop-color="rgb(0.799561%, 91.398621%, 39.646912%)" offset="0.929688"/><stop stop-opacity="1" stop-color="rgb(0.799561%, 91.598511%, 39.456177%)" offset="0.933594"/><stop stop-opacity="1" stop-color="rgb(0.799561%, 91.799927%, 39.265442%)" offset="0.9375"/><stop stop-opacity="1" stop-color="rgb(0.799561%, 91.999817%, 39.031982%)" offset="0.941406"/><stop stop-opacity="1" stop-color="rgb(0.799561%, 92.199707%, 38.798523%)" offset="0.945313"/><stop stop-opacity="1" stop-color="rgb(0.799561%, 92.347717%, 38.601685%)" offset="0.949219"/><stop stop-opacity="1" stop-color="rgb(0.799561%, 92.495728%, 38.404846%)" offset="0.953125"/><stop stop-opacity="1" stop-color="rgb(0.799561%, 92.684937%, 38.214111%)" offset="0.960938"/><stop stop-opacity="1" stop-color="rgb(0.799561%, 92.886353%, 38.011169%)" offset="0.96875"/><stop stop-opacity="1" stop-color="rgb(0.799561%, 92.89856%, 37.998962%)" offset="1"/></linearGradient></defs><g clip-path="url(#id1)"><g clip-path="url(#id2)"><g clip-path="url(#id3)"><g clip-path="url(#id4)"><path fill="url(#id5)" d="M -270.871094 390.300781 L 391.042969 1052.132812 L 1052.953125 390.300781 L 391.042969 -271.535156 Z M -270.871094 390.300781 " fill-rule="nonzero"/></g></g></g></g></svg>