<svg xmlns="http://www.w3.org/2000/svg" xmlns:xlink="http://www.w3.org/1999/xlink" width="1024" zoomAndPan="magnify" viewBox="0 0 768 767.999994" height="1024" preserveAspectRatio="xMidYMid meet" version="1.0"><path fill="rgb(47.059631%, 80.389404%, 83.139038%)" d="M 756.917969 144.425781 L 756.917969 623.144531 C 756.917969 646.726562 741.921875 667.707031 719.328125 675.507812 L 551.894531 752.386719 L 568.519531 550.910156 L 568.519531 216.65625 L 551.894531 15.183594 L 719.328125 92.058594 C 741.921875 99.851562 756.917969 120.839844 756.917969 144.425781 Z M 756.917969 144.425781 " fill-opacity="1" fill-rule="nonzero"/><path fill="rgb(12.159729%, 12.939453%, 16.859436%)" d="M 551.894531 763.46875 C 549.65625 763.46875 547.429688 762.78125 545.535156 761.460938 C 542.308594 759.199219 540.535156 755.386719 540.847656 751.476562 L 557.46875 549.988281 L 557.4375 216.65625 L 540.847656 16.082031 C 540.535156 12.15625 542.308594 8.355469 545.535156 6.09375 C 548.757812 3.855469 552.9375 3.46875 556.515625 5.097656 L 723.949219 81.988281 C 749.890625 90.875 768 116.132812 768 144.414062 L 768 623.132812 C 768 651.425781 749.890625 676.671875 722.949219 685.96875 L 556.515625 762.457031 C 555.042969 763.136719 553.46875 763.46875 551.894531 763.46875 Z M 564.507812 33.148438 L 579.570312 215.75 L 579.601562 550.898438 L 564.496094 734.410156 L 714.714844 665.421875 C 733.734375 658.804688 745.835938 641.972656 745.835938 623.144531 L 745.835938 144.414062 C 745.835938 125.585938 733.734375 108.738281 715.714844 102.53125 Z M 564.507812 33.148438 " fill-opacity="1" fill-rule="nonzero"/><path fill="rgb(22.349548%, 76.078796%, 84.709167%)" d="M 104.285156 567.542969 L 568.519531 216.65625 L 568.519531 37.511719 C 568.519531 15.269531 541.003906 4.863281 526.273438 21.542969 L 23.660156 481.070312 C 6.949219 496.484375 7.890625 523.171875 25.644531 537.367188 C 25.644531 537.367188 50.226562 560.242188 59.125 566.589844 C 72.789062 576.34375 90.753906 577.460938 104.285156 567.542969 Z M 104.285156 567.542969 " fill-opacity="1" fill-rule="nonzero"/><path fill="rgb(12.159729%, 12.939453%, 16.859436%)" d="M 82.996094 585.542969 C 72.421875 585.542969 61.660156 582.019531 52.683594 575.613281 C 43.476562 569.019531 20.65625 547.875 18.097656 545.480469 C 7.714844 537.210938 1.140625 524.089844 0.652344 510.027344 C 0.15625 495.964844 5.816406 482.445312 16.148438 472.902344 L 518.394531 13.71875 C 525.164062 6.304688 534.296875 2.238281 544.171875 2.238281 C 561.582031 2.238281 579.589844 15.414062 579.589844 37.503906 L 579.589844 216.65625 C 579.589844 220.125 577.960938 223.394531 575.191406 225.5 L 110.964844 576.386719 C 102.742188 582.417969 93.125 585.542969 82.996094 585.542969 Z M 544.183594 24.414062 C 541.613281 24.414062 537.855469 25.179688 534.597656 28.878906 C 534.339844 29.167969 534.054688 29.457031 533.765625 29.722656 L 31.140625 489.25 C 25.589844 494.367188 22.542969 501.671875 22.796875 509.273438 C 23.0625 516.886719 26.628906 523.96875 32.570312 528.734375 C 39.886719 535.484375 58.746094 552.714844 65.574219 557.59375 C 75.503906 564.683594 88.714844 565.226562 97.746094 558.621094 L 557.4375 211.140625 L 557.4375 37.511719 C 557.4375 29.3125 550.699219 24.414062 544.183594 24.414062 Z M 544.183594 24.414062 " fill-opacity="1" fill-rule="nonzero"/><path fill="rgb(22.349548%, 76.078796%, 84.709167%)" d="M 407.703125 351.984375 L 269.433594 240.839844 L 75.238281 418.511719 L 194.648438 513.441406 Z M 407.703125 351.984375 " fill-opacity="1" fill-rule="nonzero"/><path fill="rgb(22.349548%, 76.078796%, 84.709167%)" d="M 104.285156 200.011719 L 568.519531 550.910156 L 568.519531 730.042969 C 568.519531 752.285156 541.003906 762.691406 526.273438 746.011719 L 23.660156 286.5 C 6.949219 271.082031 7.890625 244.398438 25.644531 230.199219 C 25.644531 230.199219 50.226562 207.328125 59.125 200.976562 C 72.789062 191.214844 90.753906 190.105469 104.285156 200.011719 Z M 104.285156 200.011719 " fill-opacity="1" fill-rule="nonzero"/><path fill="rgb(12.159729%, 12.939453%, 16.859436%)" d="M 544.183594 765.308594 C 534.296875 765.308594 525.175781 761.238281 518.40625 753.824219 L 16.179688 294.675781 C 5.796875 285.113281 0.15625 271.582031 0.652344 257.507812 C 1.140625 243.433594 7.734375 230.332031 18.71875 221.535156 C 20.667969 219.683594 43.476562 198.527344 52.683594 191.945312 C 70.261719 179.398438 94.277344 178.933594 110.832031 191.070312 L 575.191406 542.054688 C 577.972656 544.160156 579.601562 547.429688 579.601562 550.898438 L 579.601562 730.042969 C 579.601562 752.117188 561.59375 765.308594 544.183594 765.308594 Z M 82.996094 204.179688 C 77 204.179688 70.804688 206.242188 65.5625 209.988281 C 58.746094 214.839844 39.886719 232.074219 33.191406 238.3125 C 26.621094 243.609375 23.0625 250.679688 22.796875 258.292969 C 22.542969 265.894531 25.589844 273.199219 31.175781 278.351562 L 533.765625 737.835938 C 534.054688 738.101562 534.339844 738.386719 534.597656 738.675781 C 537.855469 742.378906 541.613281 743.140625 544.183594 743.140625 C 550.699219 743.140625 557.4375 738.253906 557.4375 730.042969 L 557.4375 556.417969 L 97.613281 208.855469 C 93.480469 205.820312 88.371094 204.179688 82.996094 204.179688 Z M 82.996094 204.179688 " fill-opacity="1" fill-rule="nonzero"/><path fill="rgb(12.159729%, 12.939453%, 16.859436%)" d="M 385.042969 366.546875 C 381.683594 366.546875 378.371094 365.027344 376.1875 362.15625 C 372.496094 357.269531 373.460938 350.320312 378.335938 346.628906 L 424.75 311.542969 C 429.625 307.832031 436.574219 308.828125 440.277344 313.695312 C 443.964844 318.582031 443 325.53125 438.125 329.21875 L 391.714844 364.308594 C 389.71875 365.824219 387.367188 366.546875 385.042969 366.546875 Z M 385.042969 366.546875 " fill-opacity="1" fill-rule="nonzero"/><path fill="rgb(12.159729%, 12.939453%, 16.859436%)" d="M 159.128906 537.355469 C 155.773438 537.355469 152.457031 535.835938 150.273438 532.96875 C 146.585938 528.089844 147.550781 521.132812 152.425781 517.441406 L 187.234375 491.121094 C 192.121094 487.417969 199.058594 488.394531 202.761719 493.269531 C 206.453125 498.148438 205.488281 505.105469 200.609375 508.796875 L 165.800781 535.117188 C 163.796875 536.625 161.457031 537.355469 159.128906 537.355469 Z M 159.128906 537.355469 " fill-opacity="1" fill-rule="nonzero"/><path fill="rgb(12.159729%, 12.939453%, 16.859436%)" d="M 707.046875 630.855469 C 703.988281 630.855469 701.507812 628.375 701.507812 625.316406 L 701.507812 561.59375 C 701.507812 558.535156 703.988281 556.050781 707.046875 556.050781 C 710.105469 556.050781 712.589844 558.535156 712.589844 561.59375 L 712.589844 625.316406 C 712.589844 628.375 710.105469 630.855469 707.046875 630.855469 Z M 707.046875 533.886719 C 703.988281 533.886719 701.507812 531.40625 701.507812 528.347656 L 701.507812 517.265625 C 701.507812 514.207031 703.988281 511.722656 707.046875 511.722656 C 710.105469 511.722656 712.589844 514.207031 712.589844 517.265625 L 712.589844 528.347656 C 712.589844 531.40625 710.105469 533.886719 707.046875 533.886719 Z M 707.046875 500.640625 C 703.988281 500.640625 701.507812 498.160156 701.507812 495.097656 L 701.507812 450.769531 C 701.507812 447.710938 703.988281 445.230469 707.046875 445.230469 C 710.105469 445.230469 712.589844 447.710938 712.589844 450.769531 L 712.589844 495.097656 C 712.589844 498.160156 710.105469 500.640625 707.046875 500.640625 Z M 707.046875 423.066406 C 703.988281 423.066406 701.507812 420.582031 701.507812 417.523438 L 701.507812 140.46875 C 701.507812 137.410156 703.988281 134.925781 707.046875 134.925781 C 710.105469 134.925781 712.589844 137.410156 712.589844 140.46875 L 712.589844 417.523438 C 712.589844 420.582031 710.105469 423.066406 707.046875 423.066406 Z M 707.046875 423.066406 " fill-opacity="1" fill-rule="nonzero"/><path fill="rgb(12.159729%, 12.939453%, 16.859436%)" d="M 264.101562 272.300781 C 261.085938 272.300781 258.074219 271.082031 255.890625 268.667969 C 251.777344 264.132812 252.121094 257.121094 256.652344 253.007812 L 294.753906 218.488281 C 299.289062 214.398438 306.300781 214.707031 310.414062 219.25 C 314.523438 223.785156 314.183594 230.800781 309.648438 234.910156 L 271.546875 269.433594 C 269.433594 271.359375 266.761719 272.300781 264.101562 272.300781 Z M 264.101562 272.300781 " fill-opacity="1" fill-rule="nonzero"/><path fill="rgb(12.159729%, 12.939453%, 16.859436%)" d="M 64.796875 454.703125 C 61.792969 454.703125 58.800781 453.496094 56.621094 451.101562 C 52.484375 446.582031 52.808594 439.566406 57.316406 435.445312 L 87.980469 407.449219 C 92.503906 403.316406 99.507812 403.617188 103.640625 408.160156 C 107.773438 412.667969 107.453125 419.683594 102.941406 423.808594 L 72.277344 451.800781 C 70.140625 453.761719 67.46875 454.703125 64.796875 454.703125 Z M 64.796875 454.703125 " fill-opacity="1" fill-rule="nonzero"/></svg>